%FSLAX45Y45*%
G04 Gerber Fmt 4.5, Leading zero omitted, Abs format (unit mm)*
G04 Created by KiCad (PCBNEW 5.99.0-unknown-dd5676f4bc~131~ubuntu20.04.1) date 2021-08-08 04:38:11*
%MOMM*%
%LPD*%
G01*
G04 APERTURE LIST*
%TA.AperFunction,Profile*%
%ADD10C,0.050000*%
%TD*%
%ADD11C,0.200000*%
G04 APERTURE END LIST*
D10*
X6000000Y-9500000D02*
X6000000Y-6100000D01*
X6100000Y-6000000D02*
G75*
G03*
X6000000Y-6100000I0J-100000D01*
G01*
X6000000Y-9500000D02*
G75*
G03*
X6100000Y-9600000I100000J0D01*
G01*
X9600000Y-9500000D02*
X9600000Y-6100000D01*
X9500000Y-9600000D02*
G75*
G03*
X9600000Y-9500000I0J100000D01*
G01*
X9600000Y-6100000D02*
G75*
G03*
X9500000Y-6000000I-100000J0D01*
G01*
X9500000Y-6000000D02*
X6100000Y-6000000D01*
X6100000Y-9600000D02*
X9500000Y-9600000D01*
D11*
X6250119Y-9917976D02*
X6250119Y-9717976D01*
X6297738Y-9717976D01*
X6326309Y-9727500D01*
X6345357Y-9746547D01*
X6354881Y-9765595D01*
X6364405Y-9803690D01*
X6364405Y-9832262D01*
X6354881Y-9870357D01*
X6345357Y-9889404D01*
X6326309Y-9908452D01*
X6297738Y-9917976D01*
X6250119Y-9917976D01*
X6450119Y-9917976D02*
X6450119Y-9784643D01*
X6450119Y-9822738D02*
X6459643Y-9803690D01*
X6469167Y-9794166D01*
X6488214Y-9784643D01*
X6507262Y-9784643D01*
X6573928Y-9917976D02*
X6573928Y-9784643D01*
X6573928Y-9717976D02*
X6564405Y-9727500D01*
X6573928Y-9737024D01*
X6583452Y-9727500D01*
X6573928Y-9717976D01*
X6573928Y-9737024D01*
X6697738Y-9917976D02*
X6678690Y-9908452D01*
X6669167Y-9889404D01*
X6669167Y-9717976D01*
X6802500Y-9917976D02*
X6783452Y-9908452D01*
X6773928Y-9889404D01*
X6773928Y-9717976D01*
X7031071Y-9917976D02*
X7031071Y-9717976D01*
X7097738Y-9860833D01*
X7164405Y-9717976D01*
X7164405Y-9917976D01*
X7345357Y-9917976D02*
X7345357Y-9813214D01*
X7335833Y-9794166D01*
X7316786Y-9784643D01*
X7278690Y-9784643D01*
X7259643Y-9794166D01*
X7345357Y-9908452D02*
X7326309Y-9917976D01*
X7278690Y-9917976D01*
X7259643Y-9908452D01*
X7250119Y-9889404D01*
X7250119Y-9870357D01*
X7259643Y-9851309D01*
X7278690Y-9841785D01*
X7326309Y-9841785D01*
X7345357Y-9832262D01*
X7440595Y-9784643D02*
X7440595Y-9984643D01*
X7440595Y-9794166D02*
X7459643Y-9784643D01*
X7497738Y-9784643D01*
X7516786Y-9794166D01*
X7526309Y-9803690D01*
X7535833Y-9822738D01*
X7535833Y-9879881D01*
X7526309Y-9898928D01*
X7516786Y-9908452D01*
X7497738Y-9917976D01*
X7459643Y-9917976D01*
X7440595Y-9908452D01*
X7621548Y-9898928D02*
X7631071Y-9908452D01*
X7621548Y-9917976D01*
X7612024Y-9908452D01*
X7621548Y-9898928D01*
X7621548Y-9917976D01*
X7621548Y-9794166D02*
X7631071Y-9803690D01*
X7621548Y-9813214D01*
X7612024Y-9803690D01*
X7621548Y-9794166D01*
X7621548Y-9813214D01*
M02*
