%FSLAX45Y45*%
G04 Gerber Fmt 4.5, Leading zero omitted, Abs format (unit mm)*
G04 Created by KiCad (PCBNEW 5.99.0-unknown-dd5676f4bc~131~ubuntu20.04.1) date 2021-08-08 04:38:11*
%MOMM*%
%LPD*%
G01*
G04 APERTURE LIST*
%TA.AperFunction,Profile*%
%ADD10C,0.050000*%
%TD*%
%ADD11C,0.200000*%
%ADD12C,0.020000*%
G04 APERTURE END LIST*
D10*
X6000000Y-9500000D02*
X6000000Y-6100000D01*
X6100000Y-6000000D02*
G75*
G03*
X6000000Y-6100000I0J-100000D01*
G01*
X6000000Y-9500000D02*
G75*
G03*
X6100000Y-9600000I100000J0D01*
G01*
X9600000Y-9500000D02*
X9600000Y-6100000D01*
X9500000Y-9600000D02*
G75*
G03*
X9600000Y-9500000I0J100000D01*
G01*
X9600000Y-6100000D02*
G75*
G03*
X9500000Y-6000000I-100000J0D01*
G01*
X9500000Y-6000000D02*
X6100000Y-6000000D01*
X6100000Y-9600000D02*
X9500000Y-9600000D01*
D11*
D12*
X6040000Y-7110000D02*
X6060000Y-7130000D01*
X6060000Y-7110000D02*
X6040000Y-7130000D01*
X6049749Y-8437393D02*
X6069749Y-8457393D01*
X6069749Y-8437393D02*
X6049749Y-8457393D01*
X6049749Y-9317393D02*
X6069749Y-9337393D01*
X6069749Y-9317393D02*
X6049749Y-9337393D01*
X6080000Y-9540000D02*
X6100000Y-9560000D01*
X6100000Y-9540000D02*
X6080000Y-9560000D01*
X6140000Y-6040000D02*
X6160000Y-6060000D01*
X6160000Y-6040000D02*
X6140000Y-6060000D01*
X6140000Y-6110000D02*
X6160000Y-6130000D01*
X6160000Y-6110000D02*
X6140000Y-6130000D01*
X6140000Y-9410000D02*
X6160000Y-9430000D01*
X6160000Y-9410000D02*
X6140000Y-9430000D01*
X6140000Y-9540000D02*
X6160000Y-9560000D01*
X6160000Y-9540000D02*
X6140000Y-9560000D01*
X6200000Y-6240000D02*
X6220000Y-6260000D01*
X6220000Y-6240000D02*
X6200000Y-6260000D01*
X6200000Y-6460000D02*
X6220000Y-6480000D01*
X6220000Y-6460000D02*
X6200000Y-6480000D01*
X6200000Y-6680000D02*
X6220000Y-6700000D01*
X6220000Y-6680000D02*
X6200000Y-6700000D01*
X6200000Y-6900000D02*
X6220000Y-6920000D01*
X6220000Y-6900000D02*
X6200000Y-6920000D01*
X6200000Y-7120000D02*
X6220000Y-7140000D01*
X6220000Y-7120000D02*
X6200000Y-7140000D01*
X6200000Y-7340000D02*
X6220000Y-7360000D01*
X6220000Y-7340000D02*
X6200000Y-7360000D01*
X6200000Y-7560000D02*
X6220000Y-7580000D01*
X6220000Y-7560000D02*
X6200000Y-7580000D01*
X6200000Y-7780000D02*
X6220000Y-7800000D01*
X6220000Y-7780000D02*
X6200000Y-7800000D01*
X6200000Y-8000000D02*
X6220000Y-8020000D01*
X6220000Y-8000000D02*
X6200000Y-8020000D01*
X6200000Y-8220000D02*
X6220000Y-8240000D01*
X6220000Y-8220000D02*
X6200000Y-8240000D01*
X6200000Y-8440000D02*
X6220000Y-8460000D01*
X6220000Y-8440000D02*
X6200000Y-8460000D01*
X6200000Y-8660000D02*
X6220000Y-8680000D01*
X6220000Y-8660000D02*
X6200000Y-8680000D01*
X6200000Y-8880000D02*
X6220000Y-8900000D01*
X6220000Y-8880000D02*
X6200000Y-8900000D01*
X6200000Y-9100000D02*
X6220000Y-9120000D01*
X6220000Y-9100000D02*
X6200000Y-9120000D01*
X6200000Y-9320000D02*
X6220000Y-9340000D01*
X6220000Y-9320000D02*
X6200000Y-9340000D01*
X6200000Y-9540000D02*
X6220000Y-9560000D01*
X6220000Y-9540000D02*
X6200000Y-9560000D01*
X6210000Y-6040321D02*
X6230000Y-6060321D01*
X6230000Y-6040321D02*
X6210000Y-6060321D01*
X6260000Y-6230000D02*
X6280000Y-6250000D01*
X6280000Y-6230000D02*
X6260000Y-6250000D01*
X6260000Y-6450000D02*
X6280000Y-6470000D01*
X6280000Y-6450000D02*
X6260000Y-6470000D01*
X6260000Y-6670000D02*
X6280000Y-6690000D01*
X6280000Y-6670000D02*
X6260000Y-6690000D01*
X6260000Y-6890000D02*
X6280000Y-6910000D01*
X6280000Y-6890000D02*
X6260000Y-6910000D01*
X6260000Y-7110000D02*
X6280000Y-7130000D01*
X6280000Y-7110000D02*
X6260000Y-7130000D01*
X6260000Y-7330000D02*
X6280000Y-7350000D01*
X6280000Y-7330000D02*
X6260000Y-7350000D01*
X6260000Y-7550000D02*
X6280000Y-7570000D01*
X6280000Y-7550000D02*
X6260000Y-7570000D01*
X6260000Y-7770000D02*
X6280000Y-7790000D01*
X6280000Y-7770000D02*
X6260000Y-7790000D01*
X6260000Y-7990000D02*
X6280000Y-8010000D01*
X6280000Y-7990000D02*
X6260000Y-8010000D01*
X6260000Y-8210000D02*
X6280000Y-8230000D01*
X6280000Y-8210000D02*
X6260000Y-8230000D01*
X6260000Y-8430000D02*
X6280000Y-8450000D01*
X6280000Y-8430000D02*
X6260000Y-8450000D01*
X6260000Y-8650000D02*
X6280000Y-8670000D01*
X6280000Y-8650000D02*
X6260000Y-8670000D01*
X6260000Y-8870000D02*
X6280000Y-8890000D01*
X6280000Y-8870000D02*
X6260000Y-8890000D01*
X6260000Y-9090000D02*
X6280000Y-9110000D01*
X6280000Y-9090000D02*
X6260000Y-9110000D01*
X6260000Y-9310000D02*
X6280000Y-9330000D01*
X6280000Y-9310000D02*
X6260000Y-9330000D01*
X6260000Y-9530000D02*
X6280000Y-9550000D01*
X6280000Y-9530000D02*
X6260000Y-9550000D01*
X6360000Y-6110000D02*
X6380000Y-6130000D01*
X6380000Y-6110000D02*
X6360000Y-6130000D01*
X6360000Y-6330000D02*
X6380000Y-6350000D01*
X6380000Y-6330000D02*
X6360000Y-6350000D01*
X6360000Y-6770000D02*
X6380000Y-6790000D01*
X6380000Y-6770000D02*
X6360000Y-6790000D01*
X6360000Y-6990000D02*
X6380000Y-7010000D01*
X6380000Y-6990000D02*
X6360000Y-7010000D01*
X6360000Y-7210000D02*
X6380000Y-7230000D01*
X6380000Y-7210000D02*
X6360000Y-7230000D01*
X6360000Y-7430000D02*
X6380000Y-7450000D01*
X6380000Y-7430000D02*
X6360000Y-7450000D01*
X6360000Y-7650000D02*
X6380000Y-7670000D01*
X6380000Y-7650000D02*
X6360000Y-7670000D01*
X6360000Y-7870000D02*
X6380000Y-7890000D01*
X6380000Y-7870000D02*
X6360000Y-7890000D01*
X6360000Y-8090000D02*
X6380000Y-8110000D01*
X6380000Y-8090000D02*
X6360000Y-8110000D01*
X6360000Y-8310000D02*
X6380000Y-8330000D01*
X6380000Y-8310000D02*
X6360000Y-8330000D01*
X6360000Y-8530000D02*
X6380000Y-8550000D01*
X6380000Y-8530000D02*
X6360000Y-8550000D01*
X6360000Y-8750000D02*
X6380000Y-8770000D01*
X6380000Y-8750000D02*
X6360000Y-8770000D01*
X6360000Y-8970000D02*
X6380000Y-8990000D01*
X6380000Y-8970000D02*
X6360000Y-8990000D01*
X6360000Y-9190000D02*
X6380000Y-9210000D01*
X6380000Y-9190000D02*
X6360000Y-9210000D01*
X6360000Y-9410000D02*
X6380000Y-9430000D01*
X6380000Y-9410000D02*
X6360000Y-9430000D01*
X6420000Y-6230000D02*
X6440000Y-6250000D01*
X6440000Y-6230000D02*
X6420000Y-6250000D01*
X6420000Y-6450000D02*
X6440000Y-6470000D01*
X6440000Y-6450000D02*
X6420000Y-6470000D01*
X6420000Y-6670000D02*
X6440000Y-6690000D01*
X6440000Y-6670000D02*
X6420000Y-6690000D01*
X6420000Y-6890000D02*
X6440000Y-6910000D01*
X6440000Y-6890000D02*
X6420000Y-6910000D01*
X6420000Y-7330000D02*
X6440000Y-7350000D01*
X6440000Y-7330000D02*
X6420000Y-7350000D01*
X6420000Y-7550000D02*
X6440000Y-7570000D01*
X6440000Y-7550000D02*
X6420000Y-7570000D01*
X6420000Y-7770000D02*
X6440000Y-7790000D01*
X6440000Y-7770000D02*
X6420000Y-7790000D01*
X6420000Y-7990000D02*
X6440000Y-8010000D01*
X6440000Y-7990000D02*
X6420000Y-8010000D01*
X6420000Y-8210000D02*
X6440000Y-8230000D01*
X6440000Y-8210000D02*
X6420000Y-8230000D01*
X6420000Y-8430000D02*
X6440000Y-8450000D01*
X6440000Y-8430000D02*
X6420000Y-8450000D01*
X6420000Y-8650000D02*
X6440000Y-8670000D01*
X6440000Y-8650000D02*
X6420000Y-8670000D01*
X6420000Y-8870000D02*
X6440000Y-8890000D01*
X6440000Y-8870000D02*
X6420000Y-8890000D01*
X6420000Y-9090000D02*
X6440000Y-9110000D01*
X6440000Y-9090000D02*
X6420000Y-9110000D01*
X6420000Y-9310000D02*
X6440000Y-9330000D01*
X6440000Y-9310000D02*
X6420000Y-9330000D01*
X6420000Y-9530000D02*
X6440000Y-9550000D01*
X6440000Y-9530000D02*
X6420000Y-9550000D01*
X6470000Y-6140000D02*
X6490000Y-6160000D01*
X6490000Y-6140000D02*
X6470000Y-6160000D01*
X6480000Y-6230000D02*
X6500000Y-6250000D01*
X6500000Y-6230000D02*
X6480000Y-6250000D01*
X6480000Y-6450000D02*
X6500000Y-6470000D01*
X6500000Y-6450000D02*
X6480000Y-6470000D01*
X6480000Y-6890000D02*
X6500000Y-6910000D01*
X6500000Y-6890000D02*
X6480000Y-6910000D01*
X6480000Y-7550000D02*
X6500000Y-7570000D01*
X6500000Y-7550000D02*
X6480000Y-7570000D01*
X6480000Y-7770000D02*
X6500000Y-7790000D01*
X6500000Y-7770000D02*
X6480000Y-7790000D01*
X6480000Y-7990000D02*
X6500000Y-8010000D01*
X6500000Y-7990000D02*
X6480000Y-8010000D01*
X6480000Y-8210000D02*
X6500000Y-8230000D01*
X6500000Y-8210000D02*
X6480000Y-8230000D01*
X6480000Y-8650000D02*
X6500000Y-8670000D01*
X6500000Y-8650000D02*
X6480000Y-8670000D01*
X6480000Y-8870000D02*
X6500000Y-8890000D01*
X6500000Y-8870000D02*
X6480000Y-8890000D01*
X6480000Y-9090000D02*
X6500000Y-9110000D01*
X6500000Y-9090000D02*
X6480000Y-9110000D01*
X6580000Y-6110000D02*
X6600000Y-6130000D01*
X6600000Y-6110000D02*
X6580000Y-6130000D01*
X6580000Y-6330000D02*
X6600000Y-6350000D01*
X6600000Y-6330000D02*
X6580000Y-6350000D01*
X6580000Y-6770000D02*
X6600000Y-6790000D01*
X6600000Y-6770000D02*
X6580000Y-6790000D01*
X6580000Y-6990000D02*
X6600000Y-7010000D01*
X6600000Y-6990000D02*
X6580000Y-7010000D01*
X6580000Y-7210000D02*
X6600000Y-7230000D01*
X6600000Y-7210000D02*
X6580000Y-7230000D01*
X6580000Y-7430000D02*
X6600000Y-7450000D01*
X6600000Y-7430000D02*
X6580000Y-7450000D01*
X6580000Y-8310000D02*
X6600000Y-8330000D01*
X6600000Y-8310000D02*
X6580000Y-8330000D01*
X6580000Y-8970000D02*
X6600000Y-8990000D01*
X6600000Y-8970000D02*
X6580000Y-8990000D01*
X6580000Y-9190000D02*
X6600000Y-9210000D01*
X6600000Y-9190000D02*
X6580000Y-9210000D01*
X6640000Y-6230000D02*
X6660000Y-6250000D01*
X6660000Y-6230000D02*
X6640000Y-6250000D01*
X6640000Y-6450000D02*
X6660000Y-6470000D01*
X6660000Y-6450000D02*
X6640000Y-6470000D01*
X6640000Y-6670000D02*
X6660000Y-6690000D01*
X6660000Y-6670000D02*
X6640000Y-6690000D01*
X6640000Y-6890000D02*
X6660000Y-6910000D01*
X6660000Y-6890000D02*
X6640000Y-6910000D01*
X6640000Y-7330000D02*
X6660000Y-7350000D01*
X6660000Y-7330000D02*
X6640000Y-7350000D01*
X6640000Y-7550000D02*
X6660000Y-7570000D01*
X6660000Y-7550000D02*
X6640000Y-7570000D01*
X6640000Y-7770000D02*
X6660000Y-7790000D01*
X6660000Y-7770000D02*
X6640000Y-7790000D01*
X6640000Y-7990000D02*
X6660000Y-8010000D01*
X6660000Y-7990000D02*
X6640000Y-8010000D01*
X6640000Y-8210000D02*
X6660000Y-8230000D01*
X6660000Y-8210000D02*
X6640000Y-8230000D01*
X6640000Y-8650000D02*
X6660000Y-8670000D01*
X6660000Y-8650000D02*
X6640000Y-8670000D01*
X6640000Y-8870000D02*
X6660000Y-8890000D01*
X6660000Y-8870000D02*
X6640000Y-8890000D01*
X6640000Y-9090000D02*
X6660000Y-9110000D01*
X6660000Y-9090000D02*
X6640000Y-9110000D01*
X6640000Y-9530000D02*
X6660000Y-9550000D01*
X6660000Y-9530000D02*
X6640000Y-9550000D01*
X6690000Y-6140000D02*
X6710000Y-6160000D01*
X6710000Y-6140000D02*
X6690000Y-6160000D01*
X6700000Y-6230000D02*
X6720000Y-6250000D01*
X6720000Y-6230000D02*
X6700000Y-6250000D01*
X6700000Y-6450000D02*
X6720000Y-6470000D01*
X6720000Y-6450000D02*
X6700000Y-6470000D01*
X6700000Y-6670000D02*
X6720000Y-6690000D01*
X6720000Y-6670000D02*
X6700000Y-6690000D01*
X6700000Y-6890000D02*
X6720000Y-6910000D01*
X6720000Y-6890000D02*
X6700000Y-6910000D01*
X6700000Y-7330000D02*
X6720000Y-7350000D01*
X6720000Y-7330000D02*
X6700000Y-7350000D01*
X6700000Y-7550000D02*
X6720000Y-7570000D01*
X6720000Y-7550000D02*
X6700000Y-7570000D01*
X6700000Y-7770000D02*
X6720000Y-7790000D01*
X6720000Y-7770000D02*
X6700000Y-7790000D01*
X6700000Y-7990000D02*
X6720000Y-8010000D01*
X6720000Y-7990000D02*
X6700000Y-8010000D01*
X6700000Y-8210000D02*
X6720000Y-8230000D01*
X6720000Y-8210000D02*
X6700000Y-8230000D01*
X6700000Y-8650000D02*
X6720000Y-8670000D01*
X6720000Y-8650000D02*
X6700000Y-8670000D01*
X6700000Y-8870000D02*
X6720000Y-8890000D01*
X6720000Y-8870000D02*
X6700000Y-8890000D01*
X6700000Y-9090000D02*
X6720000Y-9110000D01*
X6720000Y-9090000D02*
X6700000Y-9110000D01*
X6800000Y-6110000D02*
X6820000Y-6130000D01*
X6820000Y-6110000D02*
X6800000Y-6130000D01*
X6800000Y-6330000D02*
X6820000Y-6350000D01*
X6820000Y-6330000D02*
X6800000Y-6350000D01*
X6800000Y-6769243D02*
X6820000Y-6789243D01*
X6820000Y-6769243D02*
X6800000Y-6789243D01*
X6800000Y-6990000D02*
X6820000Y-7010000D01*
X6820000Y-6990000D02*
X6800000Y-7010000D01*
X6800000Y-7210000D02*
X6820000Y-7230000D01*
X6820000Y-7210000D02*
X6800000Y-7230000D01*
X6800000Y-7430000D02*
X6820000Y-7450000D01*
X6820000Y-7430000D02*
X6800000Y-7450000D01*
X6800000Y-7650000D02*
X6820000Y-7670000D01*
X6820000Y-7650000D02*
X6800000Y-7670000D01*
X6800000Y-8090000D02*
X6820000Y-8110000D01*
X6820000Y-8090000D02*
X6800000Y-8110000D01*
X6800000Y-8310000D02*
X6820000Y-8330000D01*
X6820000Y-8310000D02*
X6800000Y-8330000D01*
X6800000Y-8970000D02*
X6820000Y-8990000D01*
X6820000Y-8970000D02*
X6800000Y-8990000D01*
X6800000Y-9190000D02*
X6820000Y-9210000D01*
X6820000Y-9190000D02*
X6800000Y-9210000D01*
X6860000Y-6230000D02*
X6880000Y-6250000D01*
X6880000Y-6230000D02*
X6860000Y-6250000D01*
X6860000Y-6450000D02*
X6880000Y-6470000D01*
X6880000Y-6450000D02*
X6860000Y-6470000D01*
X6860000Y-6670000D02*
X6880000Y-6690000D01*
X6880000Y-6670000D02*
X6860000Y-6690000D01*
X6860000Y-6890000D02*
X6880000Y-6910000D01*
X6880000Y-6890000D02*
X6860000Y-6910000D01*
X6860000Y-7330000D02*
X6880000Y-7350000D01*
X6880000Y-7330000D02*
X6860000Y-7350000D01*
X6860000Y-7550000D02*
X6880000Y-7570000D01*
X6880000Y-7550000D02*
X6860000Y-7570000D01*
X6860000Y-7770000D02*
X6880000Y-7790000D01*
X6880000Y-7770000D02*
X6860000Y-7790000D01*
X6860000Y-7990000D02*
X6880000Y-8010000D01*
X6880000Y-7990000D02*
X6860000Y-8010000D01*
X6860000Y-8210000D02*
X6880000Y-8230000D01*
X6880000Y-8210000D02*
X6860000Y-8230000D01*
X6860000Y-8650000D02*
X6880000Y-8670000D01*
X6880000Y-8650000D02*
X6860000Y-8670000D01*
X6860000Y-8870000D02*
X6880000Y-8890000D01*
X6880000Y-8870000D02*
X6860000Y-8890000D01*
X6860000Y-9090000D02*
X6880000Y-9110000D01*
X6880000Y-9090000D02*
X6860000Y-9110000D01*
X6860000Y-9530000D02*
X6880000Y-9550000D01*
X6880000Y-9530000D02*
X6860000Y-9550000D01*
X6920000Y-6230000D02*
X6940000Y-6250000D01*
X6940000Y-6230000D02*
X6920000Y-6250000D01*
X6920000Y-6890000D02*
X6940000Y-6910000D01*
X6940000Y-6890000D02*
X6920000Y-6910000D01*
X6920000Y-7330000D02*
X6940000Y-7350000D01*
X6940000Y-7330000D02*
X6920000Y-7350000D01*
X6920000Y-7770000D02*
X6940000Y-7790000D01*
X6940000Y-7770000D02*
X6920000Y-7790000D01*
X6920000Y-7990000D02*
X6940000Y-8010000D01*
X6940000Y-7990000D02*
X6920000Y-8010000D01*
X6920000Y-8210000D02*
X6940000Y-8230000D01*
X6940000Y-8210000D02*
X6920000Y-8230000D01*
X6920000Y-8650000D02*
X6940000Y-8670000D01*
X6940000Y-8650000D02*
X6920000Y-8670000D01*
X6920000Y-8870000D02*
X6940000Y-8890000D01*
X6940000Y-8870000D02*
X6920000Y-8890000D01*
X6920000Y-9090000D02*
X6940000Y-9110000D01*
X6940000Y-9090000D02*
X6920000Y-9110000D01*
X7020000Y-6110000D02*
X7040000Y-6130000D01*
X7040000Y-6110000D02*
X7020000Y-6130000D01*
X7020000Y-6330000D02*
X7040000Y-6350000D01*
X7040000Y-6330000D02*
X7020000Y-6350000D01*
X7020000Y-6770000D02*
X7040000Y-6790000D01*
X7040000Y-6770000D02*
X7020000Y-6790000D01*
X7020000Y-6990000D02*
X7040000Y-7010000D01*
X7040000Y-6990000D02*
X7020000Y-7010000D01*
X7020000Y-7210000D02*
X7040000Y-7230000D01*
X7040000Y-7210000D02*
X7020000Y-7230000D01*
X7020000Y-7430000D02*
X7040000Y-7450000D01*
X7040000Y-7430000D02*
X7020000Y-7450000D01*
X7020000Y-7870000D02*
X7040000Y-7890000D01*
X7040000Y-7870000D02*
X7020000Y-7890000D01*
X7020000Y-8530000D02*
X7040000Y-8550000D01*
X7040000Y-8530000D02*
X7020000Y-8550000D01*
X7020000Y-8750000D02*
X7040000Y-8770000D01*
X7040000Y-8750000D02*
X7020000Y-8770000D01*
X7020000Y-8970000D02*
X7040000Y-8990000D01*
X7040000Y-8970000D02*
X7020000Y-8990000D01*
X7080000Y-6230000D02*
X7100000Y-6250000D01*
X7100000Y-6230000D02*
X7080000Y-6250000D01*
X7080000Y-6450000D02*
X7100000Y-6470000D01*
X7100000Y-6450000D02*
X7080000Y-6470000D01*
X7080000Y-6670000D02*
X7100000Y-6690000D01*
X7100000Y-6670000D02*
X7080000Y-6690000D01*
X7080000Y-6890000D02*
X7100000Y-6910000D01*
X7100000Y-6890000D02*
X7080000Y-6910000D01*
X7080000Y-7330000D02*
X7100000Y-7350000D01*
X7100000Y-7330000D02*
X7080000Y-7350000D01*
X7080000Y-7550000D02*
X7100000Y-7570000D01*
X7100000Y-7550000D02*
X7080000Y-7570000D01*
X7080000Y-7770000D02*
X7100000Y-7790000D01*
X7100000Y-7770000D02*
X7080000Y-7790000D01*
X7080000Y-7990000D02*
X7100000Y-8010000D01*
X7100000Y-7990000D02*
X7080000Y-8010000D01*
X7080000Y-8210000D02*
X7100000Y-8230000D01*
X7100000Y-8210000D02*
X7080000Y-8230000D01*
X7080000Y-8430000D02*
X7100000Y-8450000D01*
X7100000Y-8430000D02*
X7080000Y-8450000D01*
X7080000Y-8650000D02*
X7100000Y-8670000D01*
X7100000Y-8650000D02*
X7080000Y-8670000D01*
X7080000Y-8870000D02*
X7100000Y-8890000D01*
X7100000Y-8870000D02*
X7080000Y-8890000D01*
X7080000Y-9090000D02*
X7100000Y-9110000D01*
X7100000Y-9090000D02*
X7080000Y-9110000D01*
X7080000Y-9310000D02*
X7100000Y-9330000D01*
X7100000Y-9310000D02*
X7080000Y-9330000D01*
X7080000Y-9530000D02*
X7100000Y-9550000D01*
X7100000Y-9530000D02*
X7080000Y-9550000D01*
X7140000Y-6230000D02*
X7160000Y-6250000D01*
X7160000Y-6230000D02*
X7140000Y-6250000D01*
X7140000Y-6890000D02*
X7160000Y-6910000D01*
X7160000Y-6890000D02*
X7140000Y-6910000D01*
X7140000Y-7330000D02*
X7160000Y-7350000D01*
X7160000Y-7330000D02*
X7140000Y-7350000D01*
X7140000Y-8210000D02*
X7160000Y-8230000D01*
X7160000Y-8210000D02*
X7140000Y-8230000D01*
X7140000Y-8430000D02*
X7160000Y-8450000D01*
X7160000Y-8430000D02*
X7140000Y-8450000D01*
X7140000Y-9090000D02*
X7160000Y-9110000D01*
X7160000Y-9090000D02*
X7140000Y-9110000D01*
X7240000Y-6110000D02*
X7260000Y-6130000D01*
X7260000Y-6110000D02*
X7240000Y-6130000D01*
X7240000Y-6330000D02*
X7260000Y-6350000D01*
X7260000Y-6330000D02*
X7240000Y-6350000D01*
X7240000Y-6550000D02*
X7260000Y-6570000D01*
X7260000Y-6550000D02*
X7240000Y-6570000D01*
X7240000Y-6770000D02*
X7260000Y-6790000D01*
X7260000Y-6770000D02*
X7240000Y-6790000D01*
X7240000Y-6990000D02*
X7260000Y-7010000D01*
X7260000Y-6990000D02*
X7240000Y-7010000D01*
X7240000Y-7210000D02*
X7260000Y-7230000D01*
X7260000Y-7210000D02*
X7240000Y-7230000D01*
X7300000Y-6230000D02*
X7320000Y-6250000D01*
X7320000Y-6230000D02*
X7300000Y-6250000D01*
X7300000Y-6450000D02*
X7320000Y-6470000D01*
X7320000Y-6450000D02*
X7300000Y-6470000D01*
X7300000Y-6670000D02*
X7320000Y-6690000D01*
X7320000Y-6670000D02*
X7300000Y-6690000D01*
X7300000Y-6890000D02*
X7320000Y-6910000D01*
X7320000Y-6890000D02*
X7300000Y-6910000D01*
X7300000Y-7110000D02*
X7320000Y-7130000D01*
X7320000Y-7110000D02*
X7300000Y-7130000D01*
X7300000Y-7330000D02*
X7320000Y-7350000D01*
X7320000Y-7330000D02*
X7300000Y-7350000D01*
X7300000Y-7550000D02*
X7320000Y-7570000D01*
X7320000Y-7550000D02*
X7300000Y-7570000D01*
X7300000Y-7770000D02*
X7320000Y-7790000D01*
X7320000Y-7770000D02*
X7300000Y-7790000D01*
X7300000Y-7990000D02*
X7320000Y-8010000D01*
X7320000Y-7990000D02*
X7300000Y-8010000D01*
X7300000Y-8210000D02*
X7320000Y-8230000D01*
X7320000Y-8210000D02*
X7300000Y-8230000D01*
X7300000Y-8430000D02*
X7320000Y-8450000D01*
X7320000Y-8430000D02*
X7300000Y-8450000D01*
X7300000Y-8650000D02*
X7320000Y-8670000D01*
X7320000Y-8650000D02*
X7300000Y-8670000D01*
X7300000Y-8870000D02*
X7320000Y-8890000D01*
X7320000Y-8870000D02*
X7300000Y-8890000D01*
X7300000Y-9090000D02*
X7320000Y-9110000D01*
X7320000Y-9090000D02*
X7300000Y-9110000D01*
X7300000Y-9310000D02*
X7320000Y-9330000D01*
X7320000Y-9310000D02*
X7300000Y-9330000D01*
X7300000Y-9530000D02*
X7320000Y-9550000D01*
X7320000Y-9530000D02*
X7300000Y-9550000D01*
X7360000Y-6230000D02*
X7380000Y-6250000D01*
X7380000Y-6230000D02*
X7360000Y-6250000D01*
X7360000Y-6450000D02*
X7380000Y-6470000D01*
X7380000Y-6450000D02*
X7360000Y-6470000D01*
X7360000Y-6670000D02*
X7380000Y-6690000D01*
X7380000Y-6670000D02*
X7360000Y-6690000D01*
X7360000Y-6890000D02*
X7380000Y-6910000D01*
X7380000Y-6890000D02*
X7360000Y-6910000D01*
X7360000Y-7330000D02*
X7380000Y-7350000D01*
X7380000Y-7330000D02*
X7360000Y-7350000D01*
X7360000Y-8870000D02*
X7380000Y-8890000D01*
X7380000Y-8870000D02*
X7360000Y-8890000D01*
X7360000Y-9090000D02*
X7380000Y-9110000D01*
X7380000Y-9090000D02*
X7360000Y-9110000D01*
X7460000Y-6110000D02*
X7480000Y-6130000D01*
X7480000Y-6110000D02*
X7460000Y-6130000D01*
X7460000Y-6330000D02*
X7480000Y-6350000D01*
X7480000Y-6330000D02*
X7460000Y-6350000D01*
X7460000Y-6770000D02*
X7480000Y-6790000D01*
X7480000Y-6770000D02*
X7460000Y-6790000D01*
X7460000Y-6990000D02*
X7480000Y-7010000D01*
X7480000Y-6990000D02*
X7460000Y-7010000D01*
X7460000Y-8970000D02*
X7480000Y-8990000D01*
X7480000Y-8970000D02*
X7460000Y-8990000D01*
X7520000Y-6230000D02*
X7540000Y-6250000D01*
X7540000Y-6230000D02*
X7520000Y-6250000D01*
X7520000Y-6450000D02*
X7540000Y-6470000D01*
X7540000Y-6450000D02*
X7520000Y-6470000D01*
X7520000Y-6670000D02*
X7540000Y-6690000D01*
X7540000Y-6670000D02*
X7520000Y-6690000D01*
X7520000Y-6890000D02*
X7540000Y-6910000D01*
X7540000Y-6890000D02*
X7520000Y-6910000D01*
X7520000Y-7330000D02*
X7540000Y-7350000D01*
X7540000Y-7330000D02*
X7520000Y-7350000D01*
X7520000Y-7550000D02*
X7540000Y-7570000D01*
X7540000Y-7550000D02*
X7520000Y-7570000D01*
X7520000Y-7770000D02*
X7540000Y-7790000D01*
X7540000Y-7770000D02*
X7520000Y-7790000D01*
X7520000Y-7990000D02*
X7540000Y-8010000D01*
X7540000Y-7990000D02*
X7520000Y-8010000D01*
X7520000Y-8210000D02*
X7540000Y-8230000D01*
X7540000Y-8210000D02*
X7520000Y-8230000D01*
X7520000Y-8430000D02*
X7540000Y-8450000D01*
X7540000Y-8430000D02*
X7520000Y-8450000D01*
X7520000Y-8650000D02*
X7540000Y-8670000D01*
X7540000Y-8650000D02*
X7520000Y-8670000D01*
X7520000Y-8870000D02*
X7540000Y-8890000D01*
X7540000Y-8870000D02*
X7520000Y-8890000D01*
X7520000Y-9090000D02*
X7540000Y-9110000D01*
X7540000Y-9090000D02*
X7520000Y-9110000D01*
X7520000Y-9310000D02*
X7540000Y-9330000D01*
X7540000Y-9310000D02*
X7520000Y-9330000D01*
X7520000Y-9530000D02*
X7540000Y-9550000D01*
X7540000Y-9530000D02*
X7520000Y-9550000D01*
X7580000Y-6230000D02*
X7600000Y-6250000D01*
X7600000Y-6230000D02*
X7580000Y-6250000D01*
X7580000Y-6450000D02*
X7600000Y-6470000D01*
X7600000Y-6450000D02*
X7580000Y-6470000D01*
X7580000Y-9090000D02*
X7600000Y-9110000D01*
X7600000Y-9090000D02*
X7580000Y-9110000D01*
X7680000Y-6110000D02*
X7700000Y-6130000D01*
X7700000Y-6110000D02*
X7680000Y-6130000D01*
X7680000Y-6330000D02*
X7700000Y-6350000D01*
X7700000Y-6330000D02*
X7680000Y-6350000D01*
X7680000Y-6990000D02*
X7700000Y-7010000D01*
X7700000Y-6990000D02*
X7680000Y-7010000D01*
X7680000Y-7210000D02*
X7700000Y-7230000D01*
X7700000Y-7210000D02*
X7680000Y-7230000D01*
X7680000Y-7430000D02*
X7700000Y-7450000D01*
X7700000Y-7430000D02*
X7680000Y-7450000D01*
X7680000Y-8530000D02*
X7700000Y-8550000D01*
X7700000Y-8530000D02*
X7680000Y-8550000D01*
X7680000Y-8750000D02*
X7700000Y-8770000D01*
X7700000Y-8750000D02*
X7680000Y-8770000D01*
X7680000Y-8970000D02*
X7700000Y-8990000D01*
X7700000Y-8970000D02*
X7680000Y-8990000D01*
X7740000Y-6230000D02*
X7760000Y-6250000D01*
X7760000Y-6230000D02*
X7740000Y-6250000D01*
X7740000Y-6450000D02*
X7760000Y-6470000D01*
X7760000Y-6450000D02*
X7740000Y-6470000D01*
X7740000Y-6670000D02*
X7760000Y-6690000D01*
X7760000Y-6670000D02*
X7740000Y-6690000D01*
X7740000Y-6890000D02*
X7760000Y-6910000D01*
X7760000Y-6890000D02*
X7740000Y-6910000D01*
X7740000Y-7330000D02*
X7760000Y-7350000D01*
X7760000Y-7330000D02*
X7740000Y-7350000D01*
X7740000Y-7550000D02*
X7760000Y-7570000D01*
X7760000Y-7550000D02*
X7740000Y-7570000D01*
X7740000Y-7770000D02*
X7760000Y-7790000D01*
X7760000Y-7770000D02*
X7740000Y-7790000D01*
X7740000Y-7990000D02*
X7760000Y-8010000D01*
X7760000Y-7990000D02*
X7740000Y-8010000D01*
X7740000Y-8210000D02*
X7760000Y-8230000D01*
X7760000Y-8210000D02*
X7740000Y-8230000D01*
X7740000Y-8430000D02*
X7760000Y-8450000D01*
X7760000Y-8430000D02*
X7740000Y-8450000D01*
X7740000Y-8650000D02*
X7760000Y-8670000D01*
X7760000Y-8650000D02*
X7740000Y-8670000D01*
X7740000Y-8870000D02*
X7760000Y-8890000D01*
X7760000Y-8870000D02*
X7740000Y-8890000D01*
X7740000Y-9090000D02*
X7760000Y-9110000D01*
X7760000Y-9090000D02*
X7740000Y-9110000D01*
X7740000Y-9310000D02*
X7760000Y-9330000D01*
X7760000Y-9310000D02*
X7740000Y-9330000D01*
X7740000Y-9530000D02*
X7760000Y-9550000D01*
X7760000Y-9530000D02*
X7740000Y-9550000D01*
X7799842Y-6889842D02*
X7819842Y-6909842D01*
X7819842Y-6889842D02*
X7799842Y-6909842D01*
X7800000Y-6230000D02*
X7820000Y-6250000D01*
X7820000Y-6230000D02*
X7800000Y-6250000D01*
X7800000Y-6450000D02*
X7820000Y-6470000D01*
X7820000Y-6450000D02*
X7800000Y-6470000D01*
X7800000Y-6670000D02*
X7820000Y-6690000D01*
X7820000Y-6670000D02*
X7800000Y-6690000D01*
X7800000Y-7330000D02*
X7820000Y-7350000D01*
X7820000Y-7330000D02*
X7800000Y-7350000D01*
X7800000Y-8650000D02*
X7820000Y-8670000D01*
X7820000Y-8650000D02*
X7800000Y-8670000D01*
X7800000Y-8870000D02*
X7820000Y-8890000D01*
X7820000Y-8870000D02*
X7800000Y-8890000D01*
X7900000Y-6330000D02*
X7920000Y-6350000D01*
X7920000Y-6330000D02*
X7900000Y-6350000D01*
X7900000Y-6990000D02*
X7920000Y-7010000D01*
X7920000Y-6990000D02*
X7900000Y-7010000D01*
X7900000Y-7210000D02*
X7920000Y-7230000D01*
X7920000Y-7210000D02*
X7900000Y-7230000D01*
X7900000Y-7430000D02*
X7920000Y-7450000D01*
X7920000Y-7430000D02*
X7900000Y-7450000D01*
X7900000Y-7650000D02*
X7920000Y-7670000D01*
X7920000Y-7650000D02*
X7900000Y-7670000D01*
X7900000Y-7870000D02*
X7920000Y-7890000D01*
X7920000Y-7870000D02*
X7900000Y-7890000D01*
X7900000Y-8525000D02*
X7920000Y-8545000D01*
X7920000Y-8525000D02*
X7900000Y-8545000D01*
X7900000Y-8970000D02*
X7920000Y-8990000D01*
X7920000Y-8970000D02*
X7900000Y-8990000D01*
X7900000Y-9190000D02*
X7920000Y-9210000D01*
X7920000Y-9190000D02*
X7900000Y-9210000D01*
X7960000Y-6230000D02*
X7980000Y-6250000D01*
X7980000Y-6230000D02*
X7960000Y-6250000D01*
X7960000Y-6450000D02*
X7980000Y-6470000D01*
X7980000Y-6450000D02*
X7960000Y-6470000D01*
X7960000Y-6670000D02*
X7980000Y-6690000D01*
X7980000Y-6670000D02*
X7960000Y-6690000D01*
X7960000Y-6890000D02*
X7980000Y-6910000D01*
X7980000Y-6890000D02*
X7960000Y-6910000D01*
X7960000Y-7330000D02*
X7980000Y-7350000D01*
X7980000Y-7330000D02*
X7960000Y-7350000D01*
X7960000Y-7550000D02*
X7980000Y-7570000D01*
X7980000Y-7550000D02*
X7960000Y-7570000D01*
X7960000Y-7770000D02*
X7980000Y-7790000D01*
X7980000Y-7770000D02*
X7960000Y-7790000D01*
X7960000Y-7990000D02*
X7980000Y-8010000D01*
X7980000Y-7990000D02*
X7960000Y-8010000D01*
X7960000Y-8210000D02*
X7980000Y-8230000D01*
X7980000Y-8210000D02*
X7960000Y-8230000D01*
X7960000Y-8430000D02*
X7980000Y-8450000D01*
X7980000Y-8430000D02*
X7960000Y-8450000D01*
X7960000Y-8650000D02*
X7980000Y-8670000D01*
X7980000Y-8650000D02*
X7960000Y-8670000D01*
X7960000Y-8870000D02*
X7980000Y-8890000D01*
X7980000Y-8870000D02*
X7960000Y-8890000D01*
X7960000Y-9090000D02*
X7980000Y-9110000D01*
X7980000Y-9090000D02*
X7960000Y-9110000D01*
X7960000Y-9310000D02*
X7980000Y-9330000D01*
X7980000Y-9310000D02*
X7960000Y-9330000D01*
X7960000Y-9530000D02*
X7980000Y-9550000D01*
X7980000Y-9530000D02*
X7960000Y-9550000D01*
X8020000Y-6230000D02*
X8040000Y-6250000D01*
X8040000Y-6230000D02*
X8020000Y-6250000D01*
X8020000Y-6450000D02*
X8040000Y-6470000D01*
X8040000Y-6450000D02*
X8020000Y-6470000D01*
X8020000Y-6670000D02*
X8040000Y-6690000D01*
X8040000Y-6670000D02*
X8020000Y-6690000D01*
X8020000Y-6890000D02*
X8040000Y-6910000D01*
X8040000Y-6890000D02*
X8020000Y-6910000D01*
X8020000Y-7330000D02*
X8040000Y-7350000D01*
X8040000Y-7330000D02*
X8020000Y-7350000D01*
X8020000Y-8650000D02*
X8040000Y-8670000D01*
X8040000Y-8650000D02*
X8020000Y-8670000D01*
X8120000Y-6330000D02*
X8140000Y-6350000D01*
X8140000Y-6330000D02*
X8120000Y-6350000D01*
X8120000Y-6990000D02*
X8140000Y-7010000D01*
X8140000Y-6990000D02*
X8120000Y-7010000D01*
X8120000Y-7210000D02*
X8140000Y-7230000D01*
X8140000Y-7210000D02*
X8120000Y-7230000D01*
X8120000Y-7430000D02*
X8140000Y-7450000D01*
X8140000Y-7430000D02*
X8120000Y-7450000D01*
X8120000Y-7870000D02*
X8140000Y-7890000D01*
X8140000Y-7870000D02*
X8120000Y-7890000D01*
X8120000Y-8970000D02*
X8140000Y-8990000D01*
X8140000Y-8970000D02*
X8120000Y-8990000D01*
X8120000Y-9190000D02*
X8140000Y-9210000D01*
X8140000Y-9190000D02*
X8120000Y-9210000D01*
X8180000Y-6230000D02*
X8200000Y-6250000D01*
X8200000Y-6230000D02*
X8180000Y-6250000D01*
X8180000Y-6450000D02*
X8200000Y-6470000D01*
X8200000Y-6450000D02*
X8180000Y-6470000D01*
X8180000Y-6670000D02*
X8200000Y-6690000D01*
X8200000Y-6670000D02*
X8180000Y-6690000D01*
X8180000Y-6890000D02*
X8200000Y-6910000D01*
X8200000Y-6890000D02*
X8180000Y-6910000D01*
X8180000Y-7330000D02*
X8200000Y-7350000D01*
X8200000Y-7330000D02*
X8180000Y-7350000D01*
X8180000Y-7550000D02*
X8200000Y-7570000D01*
X8200000Y-7550000D02*
X8180000Y-7570000D01*
X8180000Y-7770000D02*
X8200000Y-7790000D01*
X8200000Y-7770000D02*
X8180000Y-7790000D01*
X8180000Y-7990000D02*
X8200000Y-8010000D01*
X8200000Y-7990000D02*
X8180000Y-8010000D01*
X8180000Y-8210000D02*
X8200000Y-8230000D01*
X8200000Y-8210000D02*
X8180000Y-8230000D01*
X8180000Y-8430000D02*
X8200000Y-8450000D01*
X8200000Y-8430000D02*
X8180000Y-8450000D01*
X8180000Y-8650000D02*
X8200000Y-8670000D01*
X8200000Y-8650000D02*
X8180000Y-8670000D01*
X8180000Y-8870000D02*
X8200000Y-8890000D01*
X8200000Y-8870000D02*
X8180000Y-8890000D01*
X8180000Y-9090000D02*
X8200000Y-9110000D01*
X8200000Y-9090000D02*
X8180000Y-9110000D01*
X8180000Y-9310000D02*
X8200000Y-9330000D01*
X8200000Y-9310000D02*
X8180000Y-9330000D01*
X8180000Y-9530000D02*
X8200000Y-9550000D01*
X8200000Y-9530000D02*
X8180000Y-9550000D01*
X8240000Y-6450000D02*
X8260000Y-6470000D01*
X8260000Y-6450000D02*
X8240000Y-6470000D01*
X8240000Y-6670000D02*
X8260000Y-6690000D01*
X8260000Y-6670000D02*
X8240000Y-6690000D01*
X8240000Y-6890000D02*
X8260000Y-6910000D01*
X8260000Y-6890000D02*
X8240000Y-6910000D01*
X8240000Y-7330000D02*
X8260000Y-7350000D01*
X8260000Y-7330000D02*
X8240000Y-7350000D01*
X8240000Y-7550000D02*
X8260000Y-7570000D01*
X8260000Y-7550000D02*
X8240000Y-7570000D01*
X8240000Y-8650000D02*
X8260000Y-8670000D01*
X8260000Y-8650000D02*
X8240000Y-8670000D01*
X8240000Y-8870000D02*
X8260000Y-8890000D01*
X8260000Y-8870000D02*
X8240000Y-8890000D01*
X8240000Y-9090000D02*
X8260000Y-9110000D01*
X8260000Y-9090000D02*
X8240000Y-9110000D01*
X8340000Y-6330000D02*
X8360000Y-6350000D01*
X8360000Y-6330000D02*
X8340000Y-6350000D01*
X8340000Y-6550000D02*
X8360000Y-6570000D01*
X8360000Y-6550000D02*
X8340000Y-6570000D01*
X8340000Y-7210000D02*
X8360000Y-7230000D01*
X8360000Y-7210000D02*
X8340000Y-7230000D01*
X8340000Y-7430000D02*
X8360000Y-7450000D01*
X8360000Y-7430000D02*
X8340000Y-7450000D01*
X8340000Y-7870000D02*
X8360000Y-7890000D01*
X8360000Y-7870000D02*
X8340000Y-7890000D01*
X8340000Y-8530000D02*
X8360000Y-8550000D01*
X8360000Y-8530000D02*
X8340000Y-8550000D01*
X8340000Y-8970000D02*
X8360000Y-8990000D01*
X8360000Y-8970000D02*
X8340000Y-8990000D01*
X8340000Y-9190000D02*
X8360000Y-9210000D01*
X8360000Y-9190000D02*
X8340000Y-9210000D01*
X8400000Y-6230000D02*
X8420000Y-6250000D01*
X8420000Y-6230000D02*
X8400000Y-6250000D01*
X8400000Y-6450000D02*
X8420000Y-6470000D01*
X8420000Y-6450000D02*
X8400000Y-6470000D01*
X8400000Y-6670000D02*
X8420000Y-6690000D01*
X8420000Y-6670000D02*
X8400000Y-6690000D01*
X8400000Y-6890000D02*
X8420000Y-6910000D01*
X8420000Y-6890000D02*
X8400000Y-6910000D01*
X8400000Y-7110000D02*
X8420000Y-7130000D01*
X8420000Y-7110000D02*
X8400000Y-7130000D01*
X8400000Y-7330000D02*
X8420000Y-7350000D01*
X8420000Y-7330000D02*
X8400000Y-7350000D01*
X8400000Y-7550000D02*
X8420000Y-7570000D01*
X8420000Y-7550000D02*
X8400000Y-7570000D01*
X8400000Y-7770000D02*
X8420000Y-7790000D01*
X8420000Y-7770000D02*
X8400000Y-7790000D01*
X8400000Y-7990000D02*
X8420000Y-8010000D01*
X8420000Y-7990000D02*
X8400000Y-8010000D01*
X8400000Y-8210000D02*
X8420000Y-8230000D01*
X8420000Y-8210000D02*
X8400000Y-8230000D01*
X8400000Y-8430000D02*
X8420000Y-8450000D01*
X8420000Y-8430000D02*
X8400000Y-8450000D01*
X8400000Y-8650000D02*
X8420000Y-8670000D01*
X8420000Y-8650000D02*
X8400000Y-8670000D01*
X8400000Y-8870000D02*
X8420000Y-8890000D01*
X8420000Y-8870000D02*
X8400000Y-8890000D01*
X8400000Y-9090000D02*
X8420000Y-9110000D01*
X8420000Y-9090000D02*
X8400000Y-9110000D01*
X8400000Y-9310000D02*
X8420000Y-9330000D01*
X8420000Y-9310000D02*
X8400000Y-9330000D01*
X8400000Y-9530000D02*
X8420000Y-9550000D01*
X8420000Y-9530000D02*
X8400000Y-9550000D01*
X8460000Y-6450000D02*
X8480000Y-6470000D01*
X8480000Y-6450000D02*
X8460000Y-6470000D01*
X8460000Y-6670000D02*
X8480000Y-6690000D01*
X8480000Y-6670000D02*
X8460000Y-6690000D01*
X8460000Y-6890000D02*
X8480000Y-6910000D01*
X8480000Y-6890000D02*
X8460000Y-6910000D01*
X8460000Y-7330001D02*
X8480000Y-7350001D01*
X8480000Y-7330001D02*
X8460000Y-7350001D01*
X8460000Y-7550000D02*
X8480000Y-7570000D01*
X8480000Y-7550000D02*
X8460000Y-7570000D01*
X8460000Y-8650000D02*
X8480000Y-8670000D01*
X8480000Y-8650000D02*
X8460000Y-8670000D01*
X8560000Y-6330000D02*
X8580000Y-6350000D01*
X8580000Y-6330000D02*
X8560000Y-6350000D01*
X8560000Y-6990000D02*
X8580000Y-7010000D01*
X8580000Y-6990000D02*
X8560000Y-7010000D01*
X8560000Y-7430000D02*
X8580000Y-7450000D01*
X8580000Y-7430000D02*
X8560000Y-7450000D01*
X8560000Y-8750000D02*
X8580000Y-8770000D01*
X8580000Y-8750000D02*
X8560000Y-8770000D01*
X8560000Y-8970000D02*
X8580000Y-8990000D01*
X8580000Y-8970000D02*
X8560000Y-8990000D01*
X8620000Y-6230000D02*
X8640000Y-6250000D01*
X8640000Y-6230000D02*
X8620000Y-6250000D01*
X8620000Y-6450000D02*
X8640000Y-6470000D01*
X8640000Y-6450000D02*
X8620000Y-6470000D01*
X8620000Y-6670000D02*
X8640000Y-6690000D01*
X8640000Y-6670000D02*
X8620000Y-6690000D01*
X8620000Y-6890000D02*
X8640000Y-6910000D01*
X8640000Y-6890000D02*
X8620000Y-6910000D01*
X8620000Y-7330000D02*
X8640000Y-7350000D01*
X8640000Y-7330000D02*
X8620000Y-7350000D01*
X8620000Y-7550000D02*
X8640000Y-7570000D01*
X8640000Y-7550000D02*
X8620000Y-7570000D01*
X8620000Y-7770000D02*
X8640000Y-7790000D01*
X8640000Y-7770000D02*
X8620000Y-7790000D01*
X8620000Y-7990000D02*
X8640000Y-8010000D01*
X8640000Y-7990000D02*
X8620000Y-8010000D01*
X8620000Y-8210000D02*
X8640000Y-8230000D01*
X8640000Y-8210000D02*
X8620000Y-8230000D01*
X8620000Y-8430000D02*
X8640000Y-8450000D01*
X8640000Y-8430000D02*
X8620000Y-8450000D01*
X8620000Y-8650000D02*
X8640000Y-8670000D01*
X8640000Y-8650000D02*
X8620000Y-8670000D01*
X8620000Y-8870000D02*
X8640000Y-8890000D01*
X8640000Y-8870000D02*
X8620000Y-8890000D01*
X8620000Y-9090000D02*
X8640000Y-9110000D01*
X8640000Y-9090000D02*
X8620000Y-9110000D01*
X8620000Y-9310000D02*
X8640000Y-9330000D01*
X8640000Y-9310000D02*
X8620000Y-9330000D01*
X8620000Y-9530000D02*
X8640000Y-9550000D01*
X8640000Y-9530000D02*
X8620000Y-9550000D01*
X8680000Y-6230000D02*
X8700000Y-6250000D01*
X8700000Y-6230000D02*
X8680000Y-6250000D01*
X8680000Y-6450000D02*
X8700000Y-6470000D01*
X8700000Y-6450000D02*
X8680000Y-6470000D01*
X8680000Y-6670000D02*
X8700000Y-6690000D01*
X8700000Y-6670000D02*
X8680000Y-6690000D01*
X8680000Y-6890001D02*
X8700000Y-6910001D01*
X8700000Y-6890001D02*
X8680000Y-6910001D01*
X8680000Y-7550000D02*
X8700000Y-7570000D01*
X8700000Y-7550000D02*
X8680000Y-7570000D01*
X8680000Y-8650000D02*
X8700000Y-8670000D01*
X8700000Y-8650000D02*
X8680000Y-8670000D01*
X8680000Y-8870000D02*
X8700000Y-8890000D01*
X8700000Y-8870000D02*
X8680000Y-8890000D01*
X8780000Y-6330000D02*
X8800000Y-6350000D01*
X8800000Y-6330000D02*
X8780000Y-6350000D01*
X8780000Y-6990000D02*
X8800000Y-7010000D01*
X8800000Y-6990000D02*
X8780000Y-7010000D01*
X8780000Y-7210000D02*
X8800000Y-7230000D01*
X8800000Y-7210000D02*
X8780000Y-7230000D01*
X8780000Y-7430000D02*
X8800000Y-7450000D01*
X8800000Y-7430000D02*
X8780000Y-7450000D01*
X8780000Y-8530000D02*
X8800000Y-8550000D01*
X8800000Y-8530000D02*
X8780000Y-8550000D01*
X8840000Y-6230000D02*
X8860000Y-6250000D01*
X8860000Y-6230000D02*
X8840000Y-6250000D01*
X8840000Y-6450000D02*
X8860000Y-6470000D01*
X8860000Y-6450000D02*
X8840000Y-6470000D01*
X8840000Y-6670000D02*
X8860000Y-6690000D01*
X8860000Y-6670000D02*
X8840000Y-6690000D01*
X8840000Y-6890000D02*
X8860000Y-6910000D01*
X8860000Y-6890000D02*
X8840000Y-6910000D01*
X8840000Y-7330000D02*
X8860000Y-7350000D01*
X8860000Y-7330000D02*
X8840000Y-7350000D01*
X8840000Y-7550000D02*
X8860000Y-7570000D01*
X8860000Y-7550000D02*
X8840000Y-7570000D01*
X8840000Y-7770000D02*
X8860000Y-7790000D01*
X8860000Y-7770000D02*
X8840000Y-7790000D01*
X8840000Y-7990000D02*
X8860000Y-8010000D01*
X8860000Y-7990000D02*
X8840000Y-8010000D01*
X8840000Y-8210000D02*
X8860000Y-8230000D01*
X8860000Y-8210000D02*
X8840000Y-8230000D01*
X8840000Y-8430000D02*
X8860000Y-8450000D01*
X8860000Y-8430000D02*
X8840000Y-8450000D01*
X8840000Y-8650000D02*
X8860000Y-8670000D01*
X8860000Y-8650000D02*
X8840000Y-8670000D01*
X8840000Y-8870000D02*
X8860000Y-8890000D01*
X8860000Y-8870000D02*
X8840000Y-8890000D01*
X8840000Y-9090000D02*
X8860000Y-9110000D01*
X8860000Y-9090000D02*
X8840000Y-9110000D01*
X8840000Y-9310000D02*
X8860000Y-9330000D01*
X8860000Y-9310000D02*
X8840000Y-9330000D01*
X8840000Y-9530000D02*
X8860000Y-9550000D01*
X8860000Y-9530000D02*
X8840000Y-9550000D01*
X8898824Y-6668826D02*
X8918824Y-6688826D01*
X8918824Y-6668826D02*
X8898824Y-6688826D01*
X8900000Y-6230000D02*
X8920000Y-6250000D01*
X8920000Y-6230000D02*
X8900000Y-6250000D01*
X8900000Y-6450000D02*
X8920000Y-6470000D01*
X8920000Y-6450000D02*
X8900000Y-6470000D01*
X8900000Y-6890000D02*
X8920000Y-6910000D01*
X8920000Y-6890000D02*
X8900000Y-6910000D01*
X8900000Y-7330000D02*
X8920000Y-7350000D01*
X8920000Y-7330000D02*
X8900000Y-7350000D01*
X8900000Y-9090000D02*
X8920000Y-9110000D01*
X8920000Y-9090000D02*
X8900000Y-9110000D01*
X9000000Y-6330000D02*
X9020000Y-6350000D01*
X9020000Y-6330000D02*
X9000000Y-6350000D01*
X9000000Y-6990000D02*
X9020000Y-7010000D01*
X9020000Y-6990000D02*
X9000000Y-7010000D01*
X9000000Y-7210000D02*
X9020000Y-7230000D01*
X9020000Y-7210000D02*
X9000000Y-7230000D01*
X9000000Y-7430000D02*
X9020000Y-7450000D01*
X9020000Y-7430000D02*
X9000000Y-7450000D01*
X9000000Y-8530000D02*
X9020000Y-8550000D01*
X9020000Y-8530000D02*
X9000000Y-8550000D01*
X9000000Y-8970000D02*
X9020000Y-8990000D01*
X9020000Y-8970000D02*
X9000000Y-8990000D01*
X9060000Y-6230000D02*
X9080000Y-6250000D01*
X9080000Y-6230000D02*
X9060000Y-6250000D01*
X9060000Y-6450000D02*
X9080000Y-6470000D01*
X9080000Y-6450000D02*
X9060000Y-6470000D01*
X9060000Y-6670000D02*
X9080000Y-6690000D01*
X9080000Y-6670000D02*
X9060000Y-6690000D01*
X9060000Y-6890000D02*
X9080000Y-6910000D01*
X9080000Y-6890000D02*
X9060000Y-6910000D01*
X9060000Y-7330000D02*
X9080000Y-7350000D01*
X9080000Y-7330000D02*
X9060000Y-7350000D01*
X9060000Y-7550000D02*
X9080000Y-7570000D01*
X9080000Y-7550000D02*
X9060000Y-7570000D01*
X9060000Y-7770000D02*
X9080000Y-7790000D01*
X9080000Y-7770000D02*
X9060000Y-7790000D01*
X9060000Y-7990000D02*
X9080000Y-8010000D01*
X9080000Y-7990000D02*
X9060000Y-8010000D01*
X9060000Y-8210000D02*
X9080000Y-8230000D01*
X9080000Y-8210000D02*
X9060000Y-8230000D01*
X9060000Y-8430000D02*
X9080000Y-8450000D01*
X9080000Y-8430000D02*
X9060000Y-8450000D01*
X9060000Y-8650000D02*
X9080000Y-8670000D01*
X9080000Y-8650000D02*
X9060000Y-8670000D01*
X9060000Y-8870000D02*
X9080000Y-8890000D01*
X9080000Y-8870000D02*
X9060000Y-8890000D01*
X9060000Y-9090000D02*
X9080000Y-9110000D01*
X9080000Y-9090000D02*
X9060000Y-9110000D01*
X9060000Y-9310000D02*
X9080000Y-9330000D01*
X9080000Y-9310000D02*
X9060000Y-9330000D01*
X9060000Y-9530000D02*
X9080000Y-9550000D01*
X9080000Y-9530000D02*
X9060000Y-9550000D01*
X9120000Y-6230000D02*
X9140000Y-6250000D01*
X9140000Y-6230000D02*
X9120000Y-6250000D01*
X9120000Y-6450000D02*
X9140000Y-6470000D01*
X9140000Y-6450000D02*
X9120000Y-6470000D01*
X9120000Y-6670000D02*
X9140000Y-6690000D01*
X9140000Y-6670000D02*
X9120000Y-6690000D01*
X9120000Y-6890000D02*
X9140000Y-6910000D01*
X9140000Y-6890000D02*
X9120000Y-6910000D01*
X9120000Y-7330000D02*
X9140000Y-7350000D01*
X9140000Y-7330000D02*
X9120000Y-7350000D01*
X9120000Y-8650000D02*
X9140000Y-8670000D01*
X9140000Y-8650000D02*
X9120000Y-8670000D01*
X9220000Y-6110000D02*
X9240000Y-6130000D01*
X9240000Y-6110000D02*
X9220000Y-6130000D01*
X9220000Y-6330000D02*
X9240000Y-6350000D01*
X9240000Y-6330000D02*
X9220000Y-6350000D01*
X9220000Y-6990000D02*
X9240000Y-7010000D01*
X9240000Y-6990000D02*
X9220000Y-7010000D01*
X9220000Y-7210000D02*
X9240000Y-7230000D01*
X9240000Y-7210000D02*
X9220000Y-7230000D01*
X9220000Y-7430000D02*
X9240000Y-7450000D01*
X9240000Y-7430000D02*
X9220000Y-7450000D01*
X9220000Y-7650000D02*
X9240000Y-7670000D01*
X9240000Y-7650000D02*
X9220000Y-7670000D01*
X9280000Y-6230000D02*
X9300000Y-6250000D01*
X9300000Y-6230000D02*
X9280000Y-6250000D01*
X9280000Y-6450000D02*
X9300000Y-6470000D01*
X9300000Y-6450000D02*
X9280000Y-6470000D01*
X9280000Y-6670000D02*
X9300000Y-6690000D01*
X9300000Y-6670000D02*
X9280000Y-6690000D01*
X9280000Y-6890000D02*
X9300000Y-6910000D01*
X9300000Y-6890000D02*
X9280000Y-6910000D01*
X9280000Y-7110000D02*
X9300000Y-7130000D01*
X9300000Y-7110000D02*
X9280000Y-7130000D01*
X9280000Y-7330000D02*
X9300000Y-7350000D01*
X9300000Y-7330000D02*
X9280000Y-7350000D01*
X9280000Y-7550000D02*
X9300000Y-7570000D01*
X9300000Y-7550000D02*
X9280000Y-7570000D01*
X9280000Y-7770000D02*
X9300000Y-7790000D01*
X9300000Y-7770000D02*
X9280000Y-7790000D01*
X9280000Y-7990000D02*
X9300000Y-8010000D01*
X9300000Y-7990000D02*
X9280000Y-8010000D01*
X9280000Y-8210000D02*
X9300000Y-8230000D01*
X9300000Y-8210000D02*
X9280000Y-8230000D01*
X9280000Y-8430000D02*
X9300000Y-8450000D01*
X9300000Y-8430000D02*
X9280000Y-8450000D01*
X9280000Y-8650000D02*
X9300000Y-8670000D01*
X9300000Y-8650000D02*
X9280000Y-8670000D01*
X9280000Y-8870000D02*
X9300000Y-8890000D01*
X9300000Y-8870000D02*
X9280000Y-8890000D01*
X9280000Y-9090000D02*
X9300000Y-9110000D01*
X9300000Y-9090000D02*
X9280000Y-9110000D01*
X9280000Y-9310000D02*
X9300000Y-9330000D01*
X9300000Y-9310000D02*
X9280000Y-9330000D01*
X9280000Y-9530000D02*
X9300000Y-9550000D01*
X9300000Y-9530000D02*
X9280000Y-9550000D01*
X9340000Y-6230000D02*
X9360000Y-6250000D01*
X9360000Y-6230000D02*
X9340000Y-6250000D01*
X9340000Y-6670000D02*
X9360000Y-6690000D01*
X9360000Y-6670000D02*
X9340000Y-6690000D01*
X9340000Y-6890000D02*
X9360000Y-6910000D01*
X9360000Y-6890000D02*
X9340000Y-6910000D01*
X9340000Y-7330000D02*
X9360000Y-7350000D01*
X9360000Y-7330000D02*
X9340000Y-7350000D01*
X9340000Y-8650000D02*
X9360000Y-8670000D01*
X9360000Y-8650000D02*
X9340000Y-8670000D01*
X9340000Y-8870000D02*
X9360000Y-8890000D01*
X9360000Y-8870000D02*
X9340000Y-8890000D01*
X9440000Y-6330000D02*
X9460000Y-6350000D01*
X9460000Y-6330000D02*
X9440000Y-6350000D01*
X9440000Y-6550000D02*
X9460000Y-6570000D01*
X9460000Y-6550000D02*
X9440000Y-6570000D01*
X9440000Y-6770000D02*
X9460000Y-6790000D01*
X9460000Y-6770000D02*
X9440000Y-6790000D01*
X9440000Y-6990000D02*
X9460000Y-7010000D01*
X9460000Y-6990000D02*
X9440000Y-7010000D01*
X9440000Y-7210000D02*
X9460000Y-7230000D01*
X9460000Y-7210000D02*
X9440000Y-7230000D01*
X9440000Y-7430000D02*
X9460000Y-7450000D01*
X9460000Y-7430000D02*
X9440000Y-7450000D01*
X9440000Y-7650000D02*
X9460000Y-7670000D01*
X9460000Y-7650000D02*
X9440000Y-7670000D01*
X9500000Y-6230000D02*
X9520000Y-6250000D01*
X9520000Y-6230000D02*
X9500000Y-6250000D01*
X9500000Y-6450000D02*
X9520000Y-6470000D01*
X9520000Y-6450000D02*
X9500000Y-6470000D01*
X9500000Y-6670000D02*
X9520000Y-6690000D01*
X9520000Y-6670000D02*
X9500000Y-6690000D01*
X9500000Y-6890000D02*
X9520000Y-6910000D01*
X9520000Y-6890000D02*
X9500000Y-6910000D01*
X9500000Y-7110000D02*
X9520000Y-7130000D01*
X9520000Y-7110000D02*
X9500000Y-7130000D01*
X9500000Y-7330000D02*
X9520000Y-7350000D01*
X9520000Y-7330000D02*
X9500000Y-7350000D01*
X9500000Y-7550000D02*
X9520000Y-7570000D01*
X9520000Y-7550000D02*
X9500000Y-7570000D01*
X9500000Y-7770000D02*
X9520000Y-7790000D01*
X9520000Y-7770000D02*
X9500000Y-7790000D01*
X9500000Y-7990000D02*
X9520000Y-8010000D01*
X9520000Y-7990000D02*
X9500000Y-8010000D01*
X9500000Y-8210000D02*
X9520000Y-8230000D01*
X9520000Y-8210000D02*
X9500000Y-8230000D01*
X9500000Y-8430000D02*
X9520000Y-8450000D01*
X9520000Y-8430000D02*
X9500000Y-8450000D01*
X9500000Y-8650000D02*
X9520000Y-8670000D01*
X9520000Y-8650000D02*
X9500000Y-8670000D01*
X9500000Y-8870000D02*
X9520000Y-8890000D01*
X9520000Y-8870000D02*
X9500000Y-8890000D01*
X9500000Y-9090000D02*
X9520000Y-9110000D01*
X9520000Y-9090000D02*
X9500000Y-9110000D01*
X9500000Y-9310000D02*
X9520000Y-9330000D01*
X9520000Y-9310000D02*
X9500000Y-9330000D01*
X9500000Y-9530000D02*
X9520000Y-9550000D01*
X9520000Y-9530000D02*
X9500000Y-9550000D01*
D11*
X6250119Y-9917976D02*
X6250119Y-9717976D01*
X6297738Y-9717976D01*
X6326309Y-9727500D01*
X6345357Y-9746547D01*
X6354881Y-9765595D01*
X6364405Y-9803690D01*
X6364405Y-9832262D01*
X6354881Y-9870357D01*
X6345357Y-9889404D01*
X6326309Y-9908452D01*
X6297738Y-9917976D01*
X6250119Y-9917976D01*
X6450119Y-9917976D02*
X6450119Y-9784643D01*
X6450119Y-9822738D02*
X6459643Y-9803690D01*
X6469167Y-9794166D01*
X6488214Y-9784643D01*
X6507262Y-9784643D01*
X6573928Y-9917976D02*
X6573928Y-9784643D01*
X6573928Y-9717976D02*
X6564405Y-9727500D01*
X6573928Y-9737024D01*
X6583452Y-9727500D01*
X6573928Y-9717976D01*
X6573928Y-9737024D01*
X6697738Y-9917976D02*
X6678690Y-9908452D01*
X6669167Y-9889404D01*
X6669167Y-9717976D01*
X6802500Y-9917976D02*
X6783452Y-9908452D01*
X6773928Y-9889404D01*
X6773928Y-9717976D01*
X7031071Y-9917976D02*
X7031071Y-9717976D01*
X7097738Y-9860833D01*
X7164405Y-9717976D01*
X7164405Y-9917976D01*
X7345357Y-9917976D02*
X7345357Y-9813214D01*
X7335833Y-9794166D01*
X7316786Y-9784643D01*
X7278690Y-9784643D01*
X7259643Y-9794166D01*
X7345357Y-9908452D02*
X7326309Y-9917976D01*
X7278690Y-9917976D01*
X7259643Y-9908452D01*
X7250119Y-9889404D01*
X7250119Y-9870357D01*
X7259643Y-9851309D01*
X7278690Y-9841785D01*
X7326309Y-9841785D01*
X7345357Y-9832262D01*
X7440595Y-9784643D02*
X7440595Y-9984643D01*
X7440595Y-9794166D02*
X7459643Y-9784643D01*
X7497738Y-9784643D01*
X7516786Y-9794166D01*
X7526309Y-9803690D01*
X7535833Y-9822738D01*
X7535833Y-9879881D01*
X7526309Y-9898928D01*
X7516786Y-9908452D01*
X7497738Y-9917976D01*
X7459643Y-9917976D01*
X7440595Y-9908452D01*
X7621548Y-9898928D02*
X7631071Y-9908452D01*
X7621548Y-9917976D01*
X7612024Y-9908452D01*
X7621548Y-9898928D01*
X7621548Y-9917976D01*
X7621548Y-9794166D02*
X7631071Y-9803690D01*
X7621548Y-9813214D01*
X7612024Y-9803690D01*
X7621548Y-9794166D01*
X7621548Y-9813214D01*
D12*
X5972500Y-10237500D02*
X5992500Y-10257500D01*
X5992500Y-10237500D02*
X5972500Y-10257500D01*
D11*
X6288214Y-10137976D02*
X6307262Y-10137976D01*
X6326309Y-10147500D01*
X6335833Y-10157024D01*
X6345357Y-10176071D01*
X6354881Y-10214166D01*
X6354881Y-10261785D01*
X6345357Y-10299881D01*
X6335833Y-10318928D01*
X6326309Y-10328452D01*
X6307262Y-10337976D01*
X6288214Y-10337976D01*
X6269167Y-10328452D01*
X6259643Y-10318928D01*
X6250119Y-10299881D01*
X6240595Y-10261785D01*
X6240595Y-10214166D01*
X6250119Y-10176071D01*
X6259643Y-10157024D01*
X6269167Y-10147500D01*
X6288214Y-10137976D01*
X6440595Y-10318928D02*
X6450119Y-10328452D01*
X6440595Y-10337976D01*
X6431071Y-10328452D01*
X6440595Y-10318928D01*
X6440595Y-10337976D01*
X6526309Y-10157024D02*
X6535833Y-10147500D01*
X6554881Y-10137976D01*
X6602500Y-10137976D01*
X6621548Y-10147500D01*
X6631071Y-10157024D01*
X6640595Y-10176071D01*
X6640595Y-10195119D01*
X6631071Y-10223690D01*
X6516786Y-10337976D01*
X6640595Y-10337976D01*
X6764405Y-10137976D02*
X6783452Y-10137976D01*
X6802500Y-10147500D01*
X6812024Y-10157024D01*
X6821548Y-10176071D01*
X6831071Y-10214166D01*
X6831071Y-10261785D01*
X6821548Y-10299881D01*
X6812024Y-10318928D01*
X6802500Y-10328452D01*
X6783452Y-10337976D01*
X6764405Y-10337976D01*
X6745357Y-10328452D01*
X6735833Y-10318928D01*
X6726309Y-10299881D01*
X6716786Y-10261785D01*
X6716786Y-10214166D01*
X6726309Y-10176071D01*
X6735833Y-10157024D01*
X6745357Y-10147500D01*
X6764405Y-10137976D01*
X6954881Y-10137976D02*
X6973928Y-10137976D01*
X6992976Y-10147500D01*
X7002500Y-10157024D01*
X7012024Y-10176071D01*
X7021548Y-10214166D01*
X7021548Y-10261785D01*
X7012024Y-10299881D01*
X7002500Y-10318928D01*
X6992976Y-10328452D01*
X6973928Y-10337976D01*
X6954881Y-10337976D01*
X6935833Y-10328452D01*
X6926309Y-10318928D01*
X6916786Y-10299881D01*
X6907262Y-10261785D01*
X6907262Y-10214166D01*
X6916786Y-10176071D01*
X6926309Y-10157024D01*
X6935833Y-10147500D01*
X6954881Y-10137976D01*
X7107262Y-10337976D02*
X7107262Y-10204643D01*
X7107262Y-10223690D02*
X7116786Y-10214166D01*
X7135833Y-10204643D01*
X7164405Y-10204643D01*
X7183452Y-10214166D01*
X7192976Y-10233214D01*
X7192976Y-10337976D01*
X7192976Y-10233214D02*
X7202500Y-10214166D01*
X7221548Y-10204643D01*
X7250119Y-10204643D01*
X7269167Y-10214166D01*
X7278690Y-10233214D01*
X7278690Y-10337976D01*
X7373928Y-10337976D02*
X7373928Y-10204643D01*
X7373928Y-10223690D02*
X7383452Y-10214166D01*
X7402500Y-10204643D01*
X7431071Y-10204643D01*
X7450119Y-10214166D01*
X7459643Y-10233214D01*
X7459643Y-10337976D01*
X7459643Y-10233214D02*
X7469167Y-10214166D01*
X7488214Y-10204643D01*
X7516786Y-10204643D01*
X7535833Y-10214166D01*
X7545357Y-10233214D01*
X7545357Y-10337976D01*
X7935833Y-10128452D02*
X7764405Y-10385595D01*
X8192976Y-10137976D02*
X8212024Y-10137976D01*
X8231071Y-10147500D01*
X8240595Y-10157024D01*
X8250119Y-10176071D01*
X8259643Y-10214166D01*
X8259643Y-10261785D01*
X8250119Y-10299881D01*
X8240595Y-10318928D01*
X8231071Y-10328452D01*
X8212024Y-10337976D01*
X8192976Y-10337976D01*
X8173928Y-10328452D01*
X8164405Y-10318928D01*
X8154881Y-10299881D01*
X8145357Y-10261785D01*
X8145357Y-10214166D01*
X8154881Y-10176071D01*
X8164405Y-10157024D01*
X8173928Y-10147500D01*
X8192976Y-10137976D01*
X8345357Y-10318928D02*
X8354881Y-10328452D01*
X8345357Y-10337976D01*
X8335833Y-10328452D01*
X8345357Y-10318928D01*
X8345357Y-10337976D01*
X8478690Y-10137976D02*
X8497738Y-10137976D01*
X8516786Y-10147500D01*
X8526310Y-10157024D01*
X8535833Y-10176071D01*
X8545357Y-10214166D01*
X8545357Y-10261785D01*
X8535833Y-10299881D01*
X8526310Y-10318928D01*
X8516786Y-10328452D01*
X8497738Y-10337976D01*
X8478690Y-10337976D01*
X8459643Y-10328452D01*
X8450119Y-10318928D01*
X8440595Y-10299881D01*
X8431071Y-10261785D01*
X8431071Y-10214166D01*
X8440595Y-10176071D01*
X8450119Y-10157024D01*
X8459643Y-10147500D01*
X8478690Y-10137976D01*
X8669167Y-10137976D02*
X8688214Y-10137976D01*
X8707262Y-10147500D01*
X8716786Y-10157024D01*
X8726310Y-10176071D01*
X8735833Y-10214166D01*
X8735833Y-10261785D01*
X8726310Y-10299881D01*
X8716786Y-10318928D01*
X8707262Y-10328452D01*
X8688214Y-10337976D01*
X8669167Y-10337976D01*
X8650119Y-10328452D01*
X8640595Y-10318928D01*
X8631071Y-10299881D01*
X8621548Y-10261785D01*
X8621548Y-10214166D01*
X8631071Y-10176071D01*
X8640595Y-10157024D01*
X8650119Y-10147500D01*
X8669167Y-10137976D01*
X8802500Y-10137976D02*
X8935833Y-10137976D01*
X8850119Y-10337976D01*
X9021548Y-10337976D02*
X9059643Y-10337976D01*
X9078690Y-10328452D01*
X9088214Y-10318928D01*
X9107262Y-10290357D01*
X9116786Y-10252262D01*
X9116786Y-10176071D01*
X9107262Y-10157024D01*
X9097738Y-10147500D01*
X9078690Y-10137976D01*
X9040595Y-10137976D01*
X9021548Y-10147500D01*
X9012024Y-10157024D01*
X9002500Y-10176071D01*
X9002500Y-10223690D01*
X9012024Y-10242738D01*
X9021548Y-10252262D01*
X9040595Y-10261785D01*
X9078690Y-10261785D01*
X9097738Y-10252262D01*
X9107262Y-10242738D01*
X9116786Y-10223690D01*
X9192976Y-10137976D02*
X9192976Y-10176071D01*
X9269167Y-10137976D02*
X9269167Y-10176071D01*
X9564405Y-10414166D02*
X9554881Y-10404643D01*
X9535833Y-10376071D01*
X9526310Y-10357024D01*
X9516786Y-10328452D01*
X9507262Y-10280833D01*
X9507262Y-10242738D01*
X9516786Y-10195119D01*
X9526310Y-10166547D01*
X9535833Y-10147500D01*
X9554881Y-10118928D01*
X9564405Y-10109404D01*
X9726310Y-10204643D02*
X9726310Y-10337976D01*
X9678690Y-10128452D02*
X9631071Y-10271309D01*
X9754881Y-10271309D01*
X9859643Y-10223690D02*
X9840595Y-10214166D01*
X9831071Y-10204643D01*
X9821548Y-10185595D01*
X9821548Y-10176071D01*
X9831071Y-10157024D01*
X9840595Y-10147500D01*
X9859643Y-10137976D01*
X9897738Y-10137976D01*
X9916786Y-10147500D01*
X9926310Y-10157024D01*
X9935833Y-10176071D01*
X9935833Y-10185595D01*
X9926310Y-10204643D01*
X9916786Y-10214166D01*
X9897738Y-10223690D01*
X9859643Y-10223690D01*
X9840595Y-10233214D01*
X9831071Y-10242738D01*
X9821548Y-10261785D01*
X9821548Y-10299881D01*
X9831071Y-10318928D01*
X9840595Y-10328452D01*
X9859643Y-10337976D01*
X9897738Y-10337976D01*
X9916786Y-10328452D01*
X9926310Y-10318928D01*
X9935833Y-10299881D01*
X9935833Y-10261785D01*
X9926310Y-10242738D01*
X9916786Y-10233214D01*
X9897738Y-10223690D01*
X10107262Y-10204643D02*
X10107262Y-10337976D01*
X10059643Y-10128452D02*
X10012024Y-10271309D01*
X10135833Y-10271309D01*
X10364405Y-10337976D02*
X10364405Y-10137976D01*
X10450119Y-10337976D02*
X10450119Y-10233214D01*
X10440595Y-10214166D01*
X10421548Y-10204643D01*
X10392976Y-10204643D01*
X10373929Y-10214166D01*
X10364405Y-10223690D01*
X10573929Y-10337976D02*
X10554881Y-10328452D01*
X10545357Y-10318928D01*
X10535833Y-10299881D01*
X10535833Y-10242738D01*
X10545357Y-10223690D01*
X10554881Y-10214166D01*
X10573929Y-10204643D01*
X10602500Y-10204643D01*
X10621548Y-10214166D01*
X10631071Y-10223690D01*
X10640595Y-10242738D01*
X10640595Y-10299881D01*
X10631071Y-10318928D01*
X10621548Y-10328452D01*
X10602500Y-10337976D01*
X10573929Y-10337976D01*
X10754881Y-10337976D02*
X10735833Y-10328452D01*
X10726310Y-10309404D01*
X10726310Y-10137976D01*
X10907262Y-10328452D02*
X10888214Y-10337976D01*
X10850119Y-10337976D01*
X10831071Y-10328452D01*
X10821548Y-10309404D01*
X10821548Y-10233214D01*
X10831071Y-10214166D01*
X10850119Y-10204643D01*
X10888214Y-10204643D01*
X10907262Y-10214166D01*
X10916786Y-10233214D01*
X10916786Y-10252262D01*
X10821548Y-10271309D01*
X10992976Y-10328452D02*
X11012024Y-10337976D01*
X11050119Y-10337976D01*
X11069167Y-10328452D01*
X11078690Y-10309404D01*
X11078690Y-10299881D01*
X11069167Y-10280833D01*
X11050119Y-10271309D01*
X11021548Y-10271309D01*
X11002500Y-10261785D01*
X10992976Y-10242738D01*
X10992976Y-10233214D01*
X11002500Y-10214166D01*
X11021548Y-10204643D01*
X11050119Y-10204643D01*
X11069167Y-10214166D01*
X11145357Y-10414166D02*
X11154881Y-10404643D01*
X11173929Y-10376071D01*
X11183452Y-10357024D01*
X11192976Y-10328452D01*
X11202500Y-10280833D01*
X11202500Y-10242738D01*
X11192976Y-10195119D01*
X11183452Y-10166547D01*
X11173929Y-10147500D01*
X11154881Y-10118928D01*
X11145357Y-10109404D01*
M02*
