M48
; DRILL file {KiCad 5.99.0-unknown-dd5676f4bc~131~ubuntu20.04.1} date Sun Aug  8 04:38:10 2021
; FORMAT={-:-/ absolute / metric / decimal}
; #@! TF.CreationDate,2021-08-08T04:38:10-07:00
; #@! TF.GenerationSoftware,Kicad,Pcbnew,5.99.0-unknown-dd5676f4bc~131~ubuntu20.04.1
; #@! TF.FileFunction,Plated,1,4,PTH
FMAT,2
METRIC
; #@! TA.AperFunction,Plated,PTH,ViaDrill
T1C0.200
%
G90
G05
T1
X60.5Y-71.2
X60.597Y-84.474
X60.597Y-93.274
X60.9Y-95.5
X61.5Y-60.5
X61.5Y-61.2
X61.5Y-94.2
X61.5Y-95.5
X62.1Y-62.5
X62.1Y-64.7
X62.1Y-66.9
X62.1Y-69.1
X62.1Y-71.3
X62.1Y-73.5
X62.1Y-75.7
X62.1Y-77.9
X62.1Y-80.1
X62.1Y-82.3
X62.1Y-84.5
X62.1Y-86.7
X62.1Y-88.9
X62.1Y-91.1
X62.1Y-93.3
X62.1Y-95.5
X62.2Y-60.503
X62.7Y-62.4
X62.7Y-64.6
X62.7Y-66.8
X62.7Y-69.0
X62.7Y-71.2
X62.7Y-73.4
X62.7Y-75.6
X62.7Y-77.8
X62.7Y-80.0
X62.7Y-82.2
X62.7Y-84.4
X62.7Y-86.6
X62.7Y-88.8
X62.7Y-91.0
X62.7Y-93.2
X62.7Y-95.4
X63.7Y-61.2
X63.7Y-63.4
X63.7Y-67.8
X63.7Y-70.0
X63.7Y-72.2
X63.7Y-74.4
X63.7Y-76.6
X63.7Y-78.8
X63.7Y-81.0
X63.7Y-83.2
X63.7Y-85.4
X63.7Y-87.6
X63.7Y-89.8
X63.7Y-92.0
X63.7Y-94.2
X64.3Y-62.4
X64.3Y-64.6
X64.3Y-66.8
X64.3Y-69.0
X64.3Y-73.4
X64.3Y-75.6
X64.3Y-77.8
X64.3Y-80.0
X64.3Y-82.2
X64.3Y-84.4
X64.3Y-86.6
X64.3Y-88.8
X64.3Y-91.0
X64.3Y-93.2
X64.3Y-95.4
X64.8Y-61.5
X64.9Y-62.4
X64.9Y-64.6
X64.9Y-69.0
X64.9Y-75.6
X64.9Y-77.8
X64.9Y-80.0
X64.9Y-82.2
X64.9Y-86.6
X64.9Y-88.8
X64.9Y-91.0
X65.9Y-61.2
X65.9Y-63.4
X65.9Y-67.8
X65.9Y-70.0
X65.9Y-72.2
X65.9Y-74.4
X65.9Y-83.2
X65.9Y-89.8
X65.9Y-92.0
X66.5Y-62.4
X66.5Y-64.6
X66.5Y-66.8
X66.5Y-69.0
X66.5Y-73.4
X66.5Y-75.6
X66.5Y-77.8
X66.5Y-80.0
X66.5Y-82.2
X66.5Y-86.6
X66.5Y-88.8
X66.5Y-91.0
X66.5Y-95.4
X67.0Y-61.5
X67.1Y-62.4
X67.1Y-64.6
X67.1Y-66.8
X67.1Y-69.0
X67.1Y-73.4
X67.1Y-75.6
X67.1Y-77.8
X67.1Y-80.0
X67.1Y-82.2
X67.1Y-86.6
X67.1Y-88.8
X67.1Y-91.0
X68.1Y-61.2
X68.1Y-63.4
X68.1Y-67.792
X68.1Y-70.0
X68.1Y-72.2
X68.1Y-74.4
X68.1Y-76.6
X68.1Y-81.0
X68.1Y-83.2
X68.1Y-89.8
X68.1Y-92.0
X68.7Y-62.4
X68.7Y-64.6
X68.7Y-66.8
X68.7Y-69.0
X68.7Y-73.4
X68.7Y-75.6
X68.7Y-77.8
X68.7Y-80.0
X68.7Y-82.2
X68.7Y-86.6
X68.7Y-88.8
X68.7Y-91.0
X68.7Y-95.4
X69.3Y-62.4
X69.3Y-69.0
X69.3Y-73.4
X69.3Y-77.8
X69.3Y-80.0
X69.3Y-82.2
X69.3Y-86.6
X69.3Y-88.8
X69.3Y-91.0
X70.3Y-61.2
X70.3Y-63.4
X70.3Y-67.8
X70.3Y-70.0
X70.3Y-72.2
X70.3Y-74.4
X70.3Y-78.8
X70.3Y-85.4
X70.3Y-87.6
X70.3Y-89.8
X70.9Y-62.4
X70.9Y-64.6
X70.9Y-66.8
X70.9Y-69.0
X70.9Y-73.4
X70.9Y-75.6
X70.9Y-77.8
X70.9Y-80.0
X70.9Y-82.2
X70.9Y-84.4
X70.9Y-86.6
X70.9Y-88.8
X70.9Y-91.0
X70.9Y-93.2
X70.9Y-95.4
X71.5Y-62.4
X71.5Y-69.0
X71.5Y-73.4
X71.5Y-82.2
X71.5Y-84.4
X71.5Y-91.0
X72.5Y-61.2
X72.5Y-63.4
X72.5Y-65.6
X72.5Y-67.8
X72.5Y-70.0
X72.5Y-72.2
X73.1Y-62.4
X73.1Y-64.6
X73.1Y-66.8
X73.1Y-69.0
X73.1Y-71.2
X73.1Y-73.4
X73.1Y-75.6
X73.1Y-77.8
X73.1Y-80.0
X73.1Y-82.2
X73.1Y-84.4
X73.1Y-86.6
X73.1Y-88.8
X73.1Y-91.0
X73.1Y-93.2
X73.1Y-95.4
X73.7Y-62.4
X73.7Y-64.6
X73.7Y-66.8
X73.7Y-69.0
X73.7Y-73.4
X73.7Y-88.8
X73.7Y-91.0
X74.7Y-61.2
X74.7Y-63.4
X74.7Y-67.8
X74.7Y-70.0
X74.7Y-89.8
X75.3Y-62.4
X75.3Y-64.6
X75.3Y-66.8
X75.3Y-69.0
X75.3Y-73.4
X75.3Y-75.6
X75.3Y-77.8
X75.3Y-80.0
X75.3Y-82.2
X75.3Y-84.4
X75.3Y-86.6
X75.3Y-88.8
X75.3Y-91.0
X75.3Y-93.2
X75.3Y-95.4
X75.9Y-62.4
X75.9Y-64.6
X75.9Y-91.0
X76.9Y-61.2
X76.9Y-63.4
X76.9Y-70.0
X76.9Y-72.2
X76.9Y-74.4
X76.9Y-85.4
X76.9Y-87.6
X76.9Y-89.8
X77.5Y-62.4
X77.5Y-64.6
X77.5Y-66.8
X77.5Y-69.0
X77.5Y-73.4
X77.5Y-75.6
X77.5Y-77.8
X77.5Y-80.0
X77.5Y-82.2
X77.5Y-84.4
X77.5Y-86.6
X77.5Y-88.8
X77.5Y-91.0
X77.5Y-93.2
X77.5Y-95.4
X78.098Y-68.998
X78.1Y-62.4
X78.1Y-64.6
X78.1Y-66.8
X78.1Y-73.4
X78.1Y-86.6
X78.1Y-88.8
X79.1Y-63.4
X79.1Y-70.0
X79.1Y-72.2
X79.1Y-74.4
X79.1Y-76.6
X79.1Y-78.8
X79.1Y-85.35
X79.1Y-89.8
X79.1Y-92.0
X79.7Y-62.4
X79.7Y-64.6
X79.7Y-66.8
X79.7Y-69.0
X79.7Y-73.4
X79.7Y-75.6
X79.7Y-77.8
X79.7Y-80.0
X79.7Y-82.2
X79.7Y-84.4
X79.7Y-86.6
X79.7Y-88.8
X79.7Y-91.0
X79.7Y-93.2
X79.7Y-95.4
X80.3Y-62.4
X80.3Y-64.6
X80.3Y-66.8
X80.3Y-69.0
X80.3Y-73.4
X80.3Y-86.6
X81.3Y-63.4
X81.3Y-70.0
X81.3Y-72.2
X81.3Y-74.4
X81.3Y-78.8
X81.3Y-89.8
X81.3Y-92.0
X81.9Y-62.4
X81.9Y-64.6
X81.9Y-66.8
X81.9Y-69.0
X81.9Y-73.4
X81.9Y-75.6
X81.9Y-77.8
X81.9Y-80.0
X81.9Y-82.2
X81.9Y-84.4
X81.9Y-86.6
X81.9Y-88.8
X81.9Y-91.0
X81.9Y-93.2
X81.9Y-95.4
X82.5Y-64.6
X82.5Y-66.8
X82.5Y-69.0
X82.5Y-73.4
X82.5Y-75.6
X82.5Y-86.6
X82.5Y-88.8
X82.5Y-91.0
X83.5Y-63.4
X83.5Y-65.6
X83.5Y-72.2
X83.5Y-74.4
X83.5Y-78.8
X83.5Y-85.4
X83.5Y-89.8
X83.5Y-92.0
X84.1Y-62.4
X84.1Y-64.6
X84.1Y-66.8
X84.1Y-69.0
X84.1Y-71.2
X84.1Y-73.4
X84.1Y-75.6
X84.1Y-77.8
X84.1Y-80.0
X84.1Y-82.2
X84.1Y-84.4
X84.1Y-86.6
X84.1Y-88.8
X84.1Y-91.0
X84.1Y-93.2
X84.1Y-95.4
X84.7Y-64.6
X84.7Y-66.8
X84.7Y-69.0
X84.7Y-73.4
X84.7Y-75.6
X84.7Y-86.6
X85.7Y-63.4
X85.7Y-70.0
X85.7Y-74.4
X85.7Y-87.6
X85.7Y-89.8
X86.3Y-62.4
X86.3Y-64.6
X86.3Y-66.8
X86.3Y-69.0
X86.3Y-73.4
X86.3Y-75.6
X86.3Y-77.8
X86.3Y-80.0
X86.3Y-82.2
X86.3Y-84.4
X86.3Y-86.6
X86.3Y-88.8
X86.3Y-91.0
X86.3Y-93.2
X86.3Y-95.4
X86.9Y-62.4
X86.9Y-64.6
X86.9Y-66.8
X86.9Y-69.0
X86.9Y-75.6
X86.9Y-86.6
X86.9Y-88.8
X87.9Y-63.4
X87.9Y-70.0
X87.9Y-72.2
X87.9Y-74.4
X87.9Y-85.4
X88.5Y-62.4
X88.5Y-64.6
X88.5Y-66.8
X88.5Y-69.0
X88.5Y-73.4
X88.5Y-75.6
X88.5Y-77.8
X88.5Y-80.0
X88.5Y-82.2
X88.5Y-84.4
X88.5Y-86.6
X88.5Y-88.8
X88.5Y-91.0
X88.5Y-93.2
X88.5Y-95.4
X89.088Y-66.788
X89.1Y-62.4
X89.1Y-64.6
X89.1Y-69.0
X89.1Y-73.4
X89.1Y-91.0
X90.1Y-63.4
X90.1Y-70.0
X90.1Y-72.2
X90.1Y-74.4
X90.1Y-85.4
X90.1Y-89.8
X90.7Y-62.4
X90.7Y-64.6
X90.7Y-66.8
X90.7Y-69.0
X90.7Y-73.4
X90.7Y-75.6
X90.7Y-77.8
X90.7Y-80.0
X90.7Y-82.2
X90.7Y-84.4
X90.7Y-86.6
X90.7Y-88.8
X90.7Y-91.0
X90.7Y-93.2
X90.7Y-95.4
X91.3Y-62.4
X91.3Y-64.6
X91.3Y-66.8
X91.3Y-69.0
X91.3Y-73.4
X91.3Y-86.6
X92.3Y-61.2
X92.3Y-63.4
X92.3Y-70.0
X92.3Y-72.2
X92.3Y-74.4
X92.3Y-76.6
X92.9Y-62.4
X92.9Y-64.6
X92.9Y-66.8
X92.9Y-69.0
X92.9Y-71.2
X92.9Y-73.4
X92.9Y-75.6
X92.9Y-77.8
X92.9Y-80.0
X92.9Y-82.2
X92.9Y-84.4
X92.9Y-86.6
X92.9Y-88.8
X92.9Y-91.0
X92.9Y-93.2
X92.9Y-95.4
X93.5Y-62.4
X93.5Y-66.8
X93.5Y-69.0
X93.5Y-73.4
X93.5Y-86.6
X93.5Y-88.8
X94.5Y-63.4
X94.5Y-65.6
X94.5Y-67.8
X94.5Y-70.0
X94.5Y-72.2
X94.5Y-74.4
X94.5Y-76.6
X95.1Y-62.4
X95.1Y-64.6
X95.1Y-66.8
X95.1Y-69.0
X95.1Y-71.2
X95.1Y-73.4
X95.1Y-75.6
X95.1Y-77.8
X95.1Y-80.0
X95.1Y-82.2
X95.1Y-84.4
X95.1Y-86.6
X95.1Y-88.8
X95.1Y-91.0
X95.1Y-93.2
X95.1Y-95.4
T0
M30
