%TF.GenerationSoftware,KiCad,Pcbnew,5.99.0-unknown-dd5676f4bc~131~ubuntu20.04.1*%
%TF.CreationDate,2021-08-08T04:37:49-07:00*%
%TF.ProjectId,panel,70616e65-6c2e-46b6-9963-61645f706362,rev?*%
%TF.SameCoordinates,Original*%
%TF.FileFunction,Paste,Top*%
%TF.FilePolarity,Positive*%
%FSLAX46Y46*%
G04 Gerber Fmt 4.6, Leading zero omitted, Abs format (unit mm)*
G04 Created by KiCad (PCBNEW 5.99.0-unknown-dd5676f4bc~131~ubuntu20.04.1) date 2021-08-08 04:37:49*
%MOMM*%
%LPD*%
G01*
G04 APERTURE LIST*
G04 Aperture macros list*
%AMRoundRect*
0 Rectangle with rounded corners*
0 $1 Rounding radius*
0 $2 $3 $4 $5 $6 $7 $8 $9 X,Y pos of 4 corners*
0 Add a 4 corners polygon primitive as box body*
4,1,4,$2,$3,$4,$5,$6,$7,$8,$9,$2,$3,0*
0 Add four circle primitives for the rounded corners*
1,1,$1+$1,$2,$3*
1,1,$1+$1,$4,$5*
1,1,$1+$1,$6,$7*
1,1,$1+$1,$8,$9*
0 Add four rect primitives between the rounded corners*
20,1,$1+$1,$2,$3,$4,$5,0*
20,1,$1+$1,$4,$5,$6,$7,0*
20,1,$1+$1,$6,$7,$8,$9,0*
20,1,$1+$1,$8,$9,$2,$3,0*%
G04 Aperture macros list end*
%ADD10RoundRect,0.080000X0.145000X0.120000X-0.145000X0.120000X-0.145000X-0.120000X0.145000X-0.120000X0*%
G04 APERTURE END LIST*
D10*
%TO.C,D2*%
X64300000Y-61100000D03*
X64300000Y-61900000D03*
X63100000Y-61900000D03*
X63100000Y-61100000D03*
%TD*%
%TO.C,D231*%
X75300000Y-91900000D03*
X75300000Y-92700000D03*
X74100000Y-92700000D03*
X74100000Y-91900000D03*
%TD*%
%TO.C,D67*%
X66500000Y-69900000D03*
X66500000Y-70700000D03*
X65300000Y-70700000D03*
X65300000Y-69900000D03*
%TD*%
%TO.C,D234*%
X81900000Y-91900000D03*
X81900000Y-92700000D03*
X80700000Y-92700000D03*
X80700000Y-91900000D03*
%TD*%
%TO.C,D238*%
X90700000Y-91900000D03*
X90700000Y-92700000D03*
X89500000Y-92700000D03*
X89500000Y-91900000D03*
%TD*%
%TO.C,D136*%
X77500000Y-78700000D03*
X77500000Y-79500000D03*
X76300000Y-79500000D03*
X76300000Y-78700000D03*
%TD*%
%TO.C,D93*%
X88500000Y-72100000D03*
X88500000Y-72900000D03*
X87300000Y-72900000D03*
X87300000Y-72100000D03*
%TD*%
%TO.C,D166*%
X73100000Y-83100000D03*
X73100000Y-83900000D03*
X71900000Y-83900000D03*
X71900000Y-83100000D03*
%TD*%
%TO.C,D168*%
X77500000Y-83100000D03*
X77500000Y-83900000D03*
X76300000Y-83900000D03*
X76300000Y-83100000D03*
%TD*%
%TO.C,D52*%
X68700000Y-67700000D03*
X68700000Y-68500000D03*
X67500000Y-68500000D03*
X67500000Y-67700000D03*
%TD*%
%TO.C,D65*%
X62100000Y-69900000D03*
X62100000Y-70700000D03*
X60900000Y-70700000D03*
X60900000Y-69900000D03*
%TD*%
%TO.C,D119*%
X75300000Y-76500000D03*
X75300000Y-77300000D03*
X74100000Y-77300000D03*
X74100000Y-76500000D03*
%TD*%
%TO.C,D85*%
X70900000Y-72100000D03*
X70900000Y-72900000D03*
X69700000Y-72900000D03*
X69700000Y-72100000D03*
%TD*%
%TO.C,D112*%
X95100000Y-74300000D03*
X95100000Y-75100000D03*
X93900000Y-75100000D03*
X93900000Y-74300000D03*
%TD*%
%TO.C,D47*%
X92900000Y-65500000D03*
X92900000Y-66300000D03*
X91700000Y-66300000D03*
X91700000Y-65500000D03*
%TD*%
%TO.C,D12*%
X86300000Y-61100000D03*
X86300000Y-61900000D03*
X85100000Y-61900000D03*
X85100000Y-61100000D03*
%TD*%
%TO.C,D33*%
X62100000Y-65500000D03*
X62100000Y-66300000D03*
X60900000Y-66300000D03*
X60900000Y-65500000D03*
%TD*%
%TO.C,D32*%
X95100000Y-63300000D03*
X95100000Y-64100000D03*
X93900000Y-64100000D03*
X93900000Y-63300000D03*
%TD*%
%TO.C,D107*%
X84100000Y-74300000D03*
X84100000Y-75100000D03*
X82900000Y-75100000D03*
X82900000Y-74300000D03*
%TD*%
%TO.C,D164*%
X68700000Y-83100000D03*
X68700000Y-83900000D03*
X67500000Y-83900000D03*
X67500000Y-83100000D03*
%TD*%
%TO.C,D88*%
X77500000Y-72100000D03*
X77500000Y-72900000D03*
X76300000Y-72900000D03*
X76300000Y-72100000D03*
%TD*%
%TO.C,D183*%
X75300000Y-85300000D03*
X75300000Y-86100000D03*
X74100000Y-86100000D03*
X74100000Y-85300000D03*
%TD*%
%TO.C,D62*%
X90700000Y-67700000D03*
X90700000Y-68500000D03*
X89500000Y-68500000D03*
X89500000Y-67700000D03*
%TD*%
%TO.C,D28*%
X86300000Y-63300000D03*
X86300000Y-64100000D03*
X85100000Y-64100000D03*
X85100000Y-63300000D03*
%TD*%
%TO.C,D100*%
X68700000Y-74300000D03*
X68700000Y-75100000D03*
X67500000Y-75100000D03*
X67500000Y-74300000D03*
%TD*%
%TO.C,D141*%
X88500000Y-78700000D03*
X88500000Y-79500000D03*
X87300000Y-79500000D03*
X87300000Y-78700000D03*
%TD*%
%TO.C,D194*%
X64300000Y-87500000D03*
X64300000Y-88300000D03*
X63100000Y-88300000D03*
X63100000Y-87500000D03*
%TD*%
%TO.C,D99*%
X66500000Y-74300000D03*
X66500000Y-75100000D03*
X65300000Y-75100000D03*
X65300000Y-74300000D03*
%TD*%
%TO.C,D96*%
X95100000Y-72100000D03*
X95100000Y-72900000D03*
X93900000Y-72900000D03*
X93900000Y-72100000D03*
%TD*%
%TO.C,D152*%
X77500000Y-80900000D03*
X77500000Y-81700000D03*
X76300000Y-81700000D03*
X76300000Y-80900000D03*
%TD*%
%TO.C,D75*%
X84100000Y-69900000D03*
X84100000Y-70700000D03*
X82900000Y-70700000D03*
X82900000Y-69900000D03*
%TD*%
%TO.C,D64*%
X95100000Y-67700000D03*
X95100000Y-68500000D03*
X93900000Y-68500000D03*
X93900000Y-67700000D03*
%TD*%
%TO.C,D232*%
X77500000Y-91900000D03*
X77500000Y-92700000D03*
X76300000Y-92700000D03*
X76300000Y-91900000D03*
%TD*%
%TO.C,D211*%
X66500000Y-89700000D03*
X66500000Y-90500000D03*
X65300000Y-90500000D03*
X65300000Y-89700000D03*
%TD*%
%TO.C,D127*%
X92900000Y-76500000D03*
X92900000Y-77300000D03*
X91700000Y-77300000D03*
X91700000Y-76500000D03*
%TD*%
%TO.C,D66*%
X64300000Y-69900000D03*
X64300000Y-70700000D03*
X63100000Y-70700000D03*
X63100000Y-69900000D03*
%TD*%
%TO.C,D78*%
X90700000Y-69900000D03*
X90700000Y-70700000D03*
X89500000Y-70700000D03*
X89500000Y-69900000D03*
%TD*%
%TO.C,D156*%
X86300000Y-80900000D03*
X86300000Y-81700000D03*
X85100000Y-81700000D03*
X85100000Y-80900000D03*
%TD*%
%TO.C,D69*%
X70900000Y-69900000D03*
X70900000Y-70700000D03*
X69700000Y-70700000D03*
X69700000Y-69900000D03*
%TD*%
%TO.C,D56*%
X77500000Y-67700000D03*
X77500000Y-68500000D03*
X76300000Y-68500000D03*
X76300000Y-67700000D03*
%TD*%
%TO.C,D24*%
X77500000Y-63300000D03*
X77500000Y-64100000D03*
X76300000Y-64100000D03*
X76300000Y-63300000D03*
%TD*%
%TO.C,D165*%
X70900000Y-83100000D03*
X70900000Y-83900000D03*
X69700000Y-83900000D03*
X69700000Y-83100000D03*
%TD*%
%TO.C,D94*%
X90700000Y-72100000D03*
X90700000Y-72900000D03*
X89500000Y-72900000D03*
X89500000Y-72100000D03*
%TD*%
%TO.C,D181*%
X70900000Y-85300000D03*
X70900000Y-86100000D03*
X69700000Y-86100000D03*
X69700000Y-85300000D03*
%TD*%
%TO.C,D222*%
X90700000Y-89700000D03*
X90700000Y-90500000D03*
X89500000Y-90500000D03*
X89500000Y-89700000D03*
%TD*%
%TO.C,D129*%
X62100000Y-78700000D03*
X62100000Y-79500000D03*
X60900000Y-79500000D03*
X60900000Y-78700000D03*
%TD*%
%TO.C,D227*%
X66500000Y-91900000D03*
X66500000Y-92700000D03*
X65300000Y-92700000D03*
X65300000Y-91900000D03*
%TD*%
%TO.C,D249*%
X79700000Y-94100000D03*
X79700000Y-94900000D03*
X78500000Y-94900000D03*
X78500000Y-94100000D03*
%TD*%
%TO.C,D8*%
X77500000Y-61100000D03*
X77500000Y-61900000D03*
X76300000Y-61900000D03*
X76300000Y-61100000D03*
%TD*%
%TO.C,D51*%
X66500000Y-67700000D03*
X66500000Y-68500000D03*
X65300000Y-68500000D03*
X65300000Y-67700000D03*
%TD*%
%TO.C,D43*%
X84100000Y-65500000D03*
X84100000Y-66300000D03*
X82900000Y-66300000D03*
X82900000Y-65500000D03*
%TD*%
%TO.C,D27*%
X84100000Y-63300000D03*
X84100000Y-64100000D03*
X82900000Y-64100000D03*
X82900000Y-63300000D03*
%TD*%
%TO.C,D252*%
X86300000Y-94100000D03*
X86300000Y-94900000D03*
X85100000Y-94900000D03*
X85100000Y-94100000D03*
%TD*%
%TO.C,D115*%
X66500000Y-76500000D03*
X66500000Y-77300000D03*
X65300000Y-77300000D03*
X65300000Y-76500000D03*
%TD*%
%TO.C,D73*%
X79700000Y-69900000D03*
X79700000Y-70700000D03*
X78500000Y-70700000D03*
X78500000Y-69900000D03*
%TD*%
%TO.C,D76*%
X86300000Y-69900000D03*
X86300000Y-70700000D03*
X85100000Y-70700000D03*
X85100000Y-69900000D03*
%TD*%
%TO.C,D71*%
X75300000Y-69900000D03*
X75300000Y-70700000D03*
X74100000Y-70700000D03*
X74100000Y-69900000D03*
%TD*%
%TO.C,D26*%
X81900000Y-63300000D03*
X81900000Y-64100000D03*
X80700000Y-64100000D03*
X80700000Y-63300000D03*
%TD*%
%TO.C,D111*%
X92900000Y-74300000D03*
X92900000Y-75100000D03*
X91700000Y-75100000D03*
X91700000Y-74300000D03*
%TD*%
%TO.C,D63*%
X92900000Y-67700000D03*
X92900000Y-68500000D03*
X91700000Y-68500000D03*
X91700000Y-67700000D03*
%TD*%
%TO.C,D173*%
X88500000Y-83100000D03*
X88500000Y-83900000D03*
X87300000Y-83900000D03*
X87300000Y-83100000D03*
%TD*%
%TO.C,D247*%
X75300000Y-94100000D03*
X75300000Y-94900000D03*
X74100000Y-94900000D03*
X74100000Y-94100000D03*
%TD*%
%TO.C,D155*%
X84100000Y-80900000D03*
X84100000Y-81700000D03*
X82900000Y-81700000D03*
X82900000Y-80900000D03*
%TD*%
%TO.C,D209*%
X62100000Y-89700000D03*
X62100000Y-90500000D03*
X60900000Y-90500000D03*
X60900000Y-89700000D03*
%TD*%
%TO.C,D239*%
X92900000Y-91900000D03*
X92900000Y-92700000D03*
X91700000Y-92700000D03*
X91700000Y-91900000D03*
%TD*%
%TO.C,D134*%
X73100000Y-78700000D03*
X73100000Y-79500000D03*
X71900000Y-79500000D03*
X71900000Y-78700000D03*
%TD*%
%TO.C,D120*%
X77500000Y-76500000D03*
X77500000Y-77300000D03*
X76300000Y-77300000D03*
X76300000Y-76500000D03*
%TD*%
%TO.C,D193*%
X62100000Y-87500000D03*
X62100000Y-88300000D03*
X60900000Y-88300000D03*
X60900000Y-87500000D03*
%TD*%
%TO.C,D149*%
X70900000Y-80900000D03*
X70900000Y-81700000D03*
X69700000Y-81700000D03*
X69700000Y-80900000D03*
%TD*%
%TO.C,D251*%
X84100000Y-94100000D03*
X84100000Y-94900000D03*
X82900000Y-94900000D03*
X82900000Y-94100000D03*
%TD*%
%TO.C,D178*%
X64300000Y-85300000D03*
X64300000Y-86100000D03*
X63100000Y-86100000D03*
X63100000Y-85300000D03*
%TD*%
%TO.C,D20*%
X68700000Y-63300000D03*
X68700000Y-64100000D03*
X67500000Y-64100000D03*
X67500000Y-63300000D03*
%TD*%
%TO.C,D160*%
X95100000Y-80900000D03*
X95100000Y-81700000D03*
X93900000Y-81700000D03*
X93900000Y-80900000D03*
%TD*%
%TO.C,D57*%
X79700000Y-67700000D03*
X79700000Y-68500000D03*
X78500000Y-68500000D03*
X78500000Y-67700000D03*
%TD*%
%TO.C,D16*%
X95100000Y-61100000D03*
X95100000Y-61900000D03*
X93900000Y-61900000D03*
X93900000Y-61100000D03*
%TD*%
%TO.C,D46*%
X90700000Y-65500000D03*
X90700000Y-66300000D03*
X89500000Y-66300000D03*
X89500000Y-65500000D03*
%TD*%
%TO.C,D35*%
X66500000Y-65500000D03*
X66500000Y-66300000D03*
X65300000Y-66300000D03*
X65300000Y-65500000D03*
%TD*%
%TO.C,D103*%
X75300000Y-74300000D03*
X75300000Y-75100000D03*
X74100000Y-75100000D03*
X74100000Y-74300000D03*
%TD*%
%TO.C,D114*%
X64300000Y-76500000D03*
X64300000Y-77300000D03*
X63100000Y-77300000D03*
X63100000Y-76500000D03*
%TD*%
%TO.C,D124*%
X86300000Y-76500000D03*
X86300000Y-77300000D03*
X85100000Y-77300000D03*
X85100000Y-76500000D03*
%TD*%
%TO.C,D226*%
X64300000Y-91900000D03*
X64300000Y-92700000D03*
X63100000Y-92700000D03*
X63100000Y-91900000D03*
%TD*%
%TO.C,D174*%
X90700000Y-83100000D03*
X90700000Y-83900000D03*
X89500000Y-83900000D03*
X89500000Y-83100000D03*
%TD*%
%TO.C,D236*%
X86300000Y-91900000D03*
X86300000Y-92700000D03*
X85100000Y-92700000D03*
X85100000Y-91900000D03*
%TD*%
%TO.C,D87*%
X75300000Y-72100000D03*
X75300000Y-72900000D03*
X74100000Y-72900000D03*
X74100000Y-72100000D03*
%TD*%
%TO.C,D125*%
X88500000Y-76500000D03*
X88500000Y-77300000D03*
X87300000Y-77300000D03*
X87300000Y-76500000D03*
%TD*%
%TO.C,D55*%
X75300000Y-67700000D03*
X75300000Y-68500000D03*
X74100000Y-68500000D03*
X74100000Y-67700000D03*
%TD*%
%TO.C,D4*%
X68700000Y-61100000D03*
X68700000Y-61900000D03*
X67500000Y-61900000D03*
X67500000Y-61100000D03*
%TD*%
%TO.C,D196*%
X68700000Y-87500000D03*
X68700000Y-88300000D03*
X67500000Y-88300000D03*
X67500000Y-87500000D03*
%TD*%
%TO.C,D23*%
X75300000Y-63300000D03*
X75300000Y-64100000D03*
X74100000Y-64100000D03*
X74100000Y-63300000D03*
%TD*%
%TO.C,D21*%
X70900000Y-63300000D03*
X70900000Y-64100000D03*
X69700000Y-64100000D03*
X69700000Y-63300000D03*
%TD*%
%TO.C,D92*%
X86300000Y-72100000D03*
X86300000Y-72900000D03*
X85100000Y-72900000D03*
X85100000Y-72100000D03*
%TD*%
%TO.C,D140*%
X86300000Y-78700000D03*
X86300000Y-79500000D03*
X85100000Y-79500000D03*
X85100000Y-78700000D03*
%TD*%
%TO.C,D217*%
X79700000Y-89700000D03*
X79700000Y-90500000D03*
X78500000Y-90500000D03*
X78500000Y-89700000D03*
%TD*%
%TO.C,D44*%
X86300000Y-65500000D03*
X86300000Y-66300000D03*
X85100000Y-66300000D03*
X85100000Y-65500000D03*
%TD*%
%TO.C,D228*%
X68700000Y-91900000D03*
X68700000Y-92700000D03*
X67500000Y-92700000D03*
X67500000Y-91900000D03*
%TD*%
%TO.C,D40*%
X77500000Y-65500000D03*
X77500000Y-66300000D03*
X76300000Y-66300000D03*
X76300000Y-65500000D03*
%TD*%
%TO.C,D19*%
X66500000Y-63300000D03*
X66500000Y-64100000D03*
X65300000Y-64100000D03*
X65300000Y-63300000D03*
%TD*%
%TO.C,D179*%
X66500000Y-85300000D03*
X66500000Y-86100000D03*
X65300000Y-86100000D03*
X65300000Y-85300000D03*
%TD*%
%TO.C,D170*%
X81900000Y-83100000D03*
X81900000Y-83900000D03*
X80700000Y-83900000D03*
X80700000Y-83100000D03*
%TD*%
%TO.C,D180*%
X68700000Y-85300000D03*
X68700000Y-86100000D03*
X67500000Y-86100000D03*
X67500000Y-85300000D03*
%TD*%
%TO.C,D30*%
X90700000Y-63300000D03*
X90700000Y-64100000D03*
X89500000Y-64100000D03*
X89500000Y-63300000D03*
%TD*%
%TO.C,D202*%
X81900000Y-87500000D03*
X81900000Y-88300000D03*
X80700000Y-88300000D03*
X80700000Y-87500000D03*
%TD*%
%TO.C,D171*%
X84100000Y-83100000D03*
X84100000Y-83900000D03*
X82900000Y-83900000D03*
X82900000Y-83100000D03*
%TD*%
%TO.C,D187*%
X84100000Y-85300000D03*
X84100000Y-86100000D03*
X82900000Y-86100000D03*
X82900000Y-85300000D03*
%TD*%
%TO.C,D59*%
X84100000Y-67700000D03*
X84100000Y-68500000D03*
X82900000Y-68500000D03*
X82900000Y-67700000D03*
%TD*%
%TO.C,D190*%
X90700000Y-85300000D03*
X90700000Y-86100000D03*
X89500000Y-86100000D03*
X89500000Y-85300000D03*
%TD*%
%TO.C,D17*%
X62100000Y-63300000D03*
X62100000Y-64100000D03*
X60900000Y-64100000D03*
X60900000Y-63300000D03*
%TD*%
%TO.C,D248*%
X77500000Y-94100000D03*
X77500000Y-94900000D03*
X76300000Y-94900000D03*
X76300000Y-94100000D03*
%TD*%
%TO.C,D182*%
X73100000Y-85300000D03*
X73100000Y-86100000D03*
X71900000Y-86100000D03*
X71900000Y-85300000D03*
%TD*%
%TO.C,D89*%
X79700000Y-72100000D03*
X79700000Y-72900000D03*
X78500000Y-72900000D03*
X78500000Y-72100000D03*
%TD*%
%TO.C,D97*%
X62100000Y-74300000D03*
X62100000Y-75100000D03*
X60900000Y-75100000D03*
X60900000Y-74300000D03*
%TD*%
%TO.C,D237*%
X88500000Y-91900000D03*
X88500000Y-92700000D03*
X87300000Y-92700000D03*
X87300000Y-91900000D03*
%TD*%
%TO.C,D201*%
X79700000Y-87500000D03*
X79700000Y-88300000D03*
X78500000Y-88300000D03*
X78500000Y-87500000D03*
%TD*%
%TO.C,D210*%
X64300000Y-89700000D03*
X64300000Y-90500000D03*
X63100000Y-90500000D03*
X63100000Y-89700000D03*
%TD*%
%TO.C,D117*%
X70900000Y-76500000D03*
X70900000Y-77300000D03*
X69700000Y-77300000D03*
X69700000Y-76500000D03*
%TD*%
%TO.C,D95*%
X92900000Y-72100000D03*
X92900000Y-72900000D03*
X91700000Y-72900000D03*
X91700000Y-72100000D03*
%TD*%
%TO.C,D223*%
X92900000Y-89700000D03*
X92900000Y-90500000D03*
X91700000Y-90500000D03*
X91700000Y-89700000D03*
%TD*%
%TO.C,D216*%
X77500000Y-89700000D03*
X77500000Y-90500000D03*
X76300000Y-90500000D03*
X76300000Y-89700000D03*
%TD*%
%TO.C,D212*%
X68700000Y-89700000D03*
X68700000Y-90500000D03*
X67500000Y-90500000D03*
X67500000Y-89700000D03*
%TD*%
%TO.C,D198*%
X73100000Y-87500000D03*
X73100000Y-88300000D03*
X71900000Y-88300000D03*
X71900000Y-87500000D03*
%TD*%
%TO.C,D235*%
X84100000Y-91900000D03*
X84100000Y-92700000D03*
X82900000Y-92700000D03*
X82900000Y-91900000D03*
%TD*%
%TO.C,D255*%
X92900000Y-94100000D03*
X92900000Y-94900000D03*
X91700000Y-94900000D03*
X91700000Y-94100000D03*
%TD*%
%TO.C,D29*%
X88500000Y-63300000D03*
X88500000Y-64100000D03*
X87300000Y-64100000D03*
X87300000Y-63300000D03*
%TD*%
%TO.C,D9*%
X79700000Y-61100000D03*
X79700000Y-61900000D03*
X78500000Y-61900000D03*
X78500000Y-61100000D03*
%TD*%
%TO.C,D48*%
X95100000Y-65500000D03*
X95100000Y-66300000D03*
X93900000Y-66300000D03*
X93900000Y-65500000D03*
%TD*%
%TO.C,D213*%
X70900000Y-89700000D03*
X70900000Y-90500000D03*
X69700000Y-90500000D03*
X69700000Y-89700000D03*
%TD*%
%TO.C,D253*%
X88500000Y-94100000D03*
X88500000Y-94900000D03*
X87300000Y-94900000D03*
X87300000Y-94100000D03*
%TD*%
%TO.C,D192*%
X95100000Y-85300000D03*
X95100000Y-86100000D03*
X93900000Y-86100000D03*
X93900000Y-85300000D03*
%TD*%
%TO.C,D146*%
X64300000Y-80900000D03*
X64300000Y-81700000D03*
X63100000Y-81700000D03*
X63100000Y-80900000D03*
%TD*%
%TO.C,D220*%
X86300000Y-89700000D03*
X86300000Y-90500000D03*
X85100000Y-90500000D03*
X85100000Y-89700000D03*
%TD*%
%TO.C,D110*%
X90700000Y-74300000D03*
X90700000Y-75100000D03*
X89500000Y-75100000D03*
X89500000Y-74300000D03*
%TD*%
%TO.C,D150*%
X73100000Y-80900000D03*
X73100000Y-81700000D03*
X71900000Y-81700000D03*
X71900000Y-80900000D03*
%TD*%
%TO.C,D126*%
X90700000Y-76500000D03*
X90700000Y-77300000D03*
X89500000Y-77300000D03*
X89500000Y-76500000D03*
%TD*%
%TO.C,D39*%
X75300000Y-65500000D03*
X75300000Y-66300000D03*
X74100000Y-66300000D03*
X74100000Y-65500000D03*
%TD*%
%TO.C,D14*%
X90700000Y-61100000D03*
X90700000Y-61900000D03*
X89500000Y-61900000D03*
X89500000Y-61100000D03*
%TD*%
%TO.C,D175*%
X92900000Y-83100000D03*
X92900000Y-83900000D03*
X91700000Y-83900000D03*
X91700000Y-83100000D03*
%TD*%
%TO.C,D250*%
X81900000Y-94100000D03*
X81900000Y-94900000D03*
X80700000Y-94900000D03*
X80700000Y-94100000D03*
%TD*%
%TO.C,D245*%
X70900000Y-94100000D03*
X70900000Y-94900000D03*
X69700000Y-94900000D03*
X69700000Y-94100000D03*
%TD*%
%TO.C,D79*%
X92900000Y-69900000D03*
X92900000Y-70700000D03*
X91700000Y-70700000D03*
X91700000Y-69900000D03*
%TD*%
%TO.C,D104*%
X77500000Y-74300000D03*
X77500000Y-75100000D03*
X76300000Y-75100000D03*
X76300000Y-74300000D03*
%TD*%
%TO.C,D159*%
X92900000Y-80900000D03*
X92900000Y-81700000D03*
X91700000Y-81700000D03*
X91700000Y-80900000D03*
%TD*%
%TO.C,D128*%
X95100000Y-76500000D03*
X95100000Y-77300000D03*
X93900000Y-77300000D03*
X93900000Y-76500000D03*
%TD*%
%TO.C,D58*%
X81900000Y-67700000D03*
X81900000Y-68500000D03*
X80700000Y-68500000D03*
X80700000Y-67700000D03*
%TD*%
%TO.C,D81*%
X62100000Y-72100000D03*
X62100000Y-72900000D03*
X60900000Y-72900000D03*
X60900000Y-72100000D03*
%TD*%
%TO.C,D221*%
X88500000Y-89700000D03*
X88500000Y-90500000D03*
X87300000Y-90500000D03*
X87300000Y-89700000D03*
%TD*%
%TO.C,D105*%
X79700000Y-74300000D03*
X79700000Y-75100000D03*
X78500000Y-75100000D03*
X78500000Y-74300000D03*
%TD*%
%TO.C,D233*%
X79700000Y-91900000D03*
X79700000Y-92700000D03*
X78500000Y-92700000D03*
X78500000Y-91900000D03*
%TD*%
%TO.C,D70*%
X73100000Y-69900000D03*
X73100000Y-70700000D03*
X71900000Y-70700000D03*
X71900000Y-69900000D03*
%TD*%
%TO.C,D133*%
X70900000Y-78700000D03*
X70900000Y-79500000D03*
X69700000Y-79500000D03*
X69700000Y-78700000D03*
%TD*%
%TO.C,D157*%
X88500000Y-80900000D03*
X88500000Y-81700000D03*
X87300000Y-81700000D03*
X87300000Y-80900000D03*
%TD*%
%TO.C,D177*%
X62100000Y-85300000D03*
X62100000Y-86100000D03*
X60900000Y-86100000D03*
X60900000Y-85300000D03*
%TD*%
%TO.C,D121*%
X79700000Y-76500000D03*
X79700000Y-77300000D03*
X78500000Y-77300000D03*
X78500000Y-76500000D03*
%TD*%
%TO.C,D86*%
X73100000Y-72100000D03*
X73100000Y-72900000D03*
X71900000Y-72900000D03*
X71900000Y-72100000D03*
%TD*%
%TO.C,D130*%
X64300000Y-78700000D03*
X64300000Y-79500000D03*
X63100000Y-79500000D03*
X63100000Y-78700000D03*
%TD*%
%TO.C,D203*%
X84100000Y-87500000D03*
X84100000Y-88300000D03*
X82900000Y-88300000D03*
X82900000Y-87500000D03*
%TD*%
%TO.C,D153*%
X79700000Y-80900000D03*
X79700000Y-81700000D03*
X78500000Y-81700000D03*
X78500000Y-80900000D03*
%TD*%
%TO.C,D154*%
X81900000Y-80900000D03*
X81900000Y-81700000D03*
X80700000Y-81700000D03*
X80700000Y-80900000D03*
%TD*%
%TO.C,D219*%
X84100000Y-89700000D03*
X84100000Y-90500000D03*
X82900000Y-90500000D03*
X82900000Y-89700000D03*
%TD*%
%TO.C,D218*%
X81900000Y-89700000D03*
X81900000Y-90500000D03*
X80700000Y-90500000D03*
X80700000Y-89700000D03*
%TD*%
%TO.C,D186*%
X81900000Y-85300000D03*
X81900000Y-86100000D03*
X80700000Y-86100000D03*
X80700000Y-85300000D03*
%TD*%
%TO.C,D131*%
X66500000Y-78700000D03*
X66500000Y-79500000D03*
X65300000Y-79500000D03*
X65300000Y-78700000D03*
%TD*%
%TO.C,D229*%
X70900000Y-91900000D03*
X70900000Y-92700000D03*
X69700000Y-92700000D03*
X69700000Y-91900000D03*
%TD*%
%TO.C,D108*%
X86300000Y-74300000D03*
X86300000Y-75100000D03*
X85100000Y-75100000D03*
X85100000Y-74300000D03*
%TD*%
%TO.C,D138*%
X81900000Y-78700000D03*
X81900000Y-79500000D03*
X80700000Y-79500000D03*
X80700000Y-78700000D03*
%TD*%
%TO.C,D42*%
X81900000Y-65500000D03*
X81900000Y-66300000D03*
X80700000Y-66300000D03*
X80700000Y-65500000D03*
%TD*%
%TO.C,D83*%
X66500000Y-72100000D03*
X66500000Y-72900000D03*
X65300000Y-72900000D03*
X65300000Y-72100000D03*
%TD*%
%TO.C,D225*%
X62100000Y-91900000D03*
X62100000Y-92700000D03*
X60900000Y-92700000D03*
X60900000Y-91900000D03*
%TD*%
%TO.C,D200*%
X77500000Y-87500000D03*
X77500000Y-88300000D03*
X76300000Y-88300000D03*
X76300000Y-87500000D03*
%TD*%
%TO.C,D13*%
X88500000Y-61100000D03*
X88500000Y-61900000D03*
X87300000Y-61900000D03*
X87300000Y-61100000D03*
%TD*%
%TO.C,D15*%
X92900000Y-61100000D03*
X92900000Y-61900000D03*
X91700000Y-61900000D03*
X91700000Y-61100000D03*
%TD*%
%TO.C,D176*%
X95100000Y-83100000D03*
X95100000Y-83900000D03*
X93900000Y-83900000D03*
X93900000Y-83100000D03*
%TD*%
%TO.C,D204*%
X86300000Y-87500000D03*
X86300000Y-88300000D03*
X85100000Y-88300000D03*
X85100000Y-87500000D03*
%TD*%
%TO.C,D137*%
X79700000Y-78700000D03*
X79700000Y-79500000D03*
X78500000Y-79500000D03*
X78500000Y-78700000D03*
%TD*%
%TO.C,D132*%
X68700000Y-78700000D03*
X68700000Y-79500000D03*
X67500000Y-79500000D03*
X67500000Y-78700000D03*
%TD*%
%TO.C,D123*%
X84100000Y-76500000D03*
X84100000Y-77300000D03*
X82900000Y-77300000D03*
X82900000Y-76500000D03*
%TD*%
%TO.C,D11*%
X84100000Y-61100000D03*
X84100000Y-61900000D03*
X82900000Y-61900000D03*
X82900000Y-61100000D03*
%TD*%
%TO.C,D254*%
X90700000Y-94100000D03*
X90700000Y-94900000D03*
X89500000Y-94900000D03*
X89500000Y-94100000D03*
%TD*%
%TO.C,D77*%
X88500000Y-69900000D03*
X88500000Y-70700000D03*
X87300000Y-70700000D03*
X87300000Y-69900000D03*
%TD*%
%TO.C,D191*%
X92900000Y-85300000D03*
X92900000Y-86100000D03*
X91700000Y-86100000D03*
X91700000Y-85300000D03*
%TD*%
%TO.C,D167*%
X75300000Y-83100000D03*
X75300000Y-83900000D03*
X74100000Y-83900000D03*
X74100000Y-83100000D03*
%TD*%
%TO.C,D106*%
X81900000Y-74300000D03*
X81900000Y-75100000D03*
X80700000Y-75100000D03*
X80700000Y-74300000D03*
%TD*%
%TO.C,D36*%
X68700000Y-65500000D03*
X68700000Y-66300000D03*
X67500000Y-66300000D03*
X67500000Y-65500000D03*
%TD*%
%TO.C,D189*%
X88500000Y-85300000D03*
X88500000Y-86100000D03*
X87300000Y-86100000D03*
X87300000Y-85300000D03*
%TD*%
%TO.C,D195*%
X66500000Y-87500000D03*
X66500000Y-88300000D03*
X65300000Y-88300000D03*
X65300000Y-87500000D03*
%TD*%
%TO.C,D199*%
X75300000Y-87500000D03*
X75300000Y-88300000D03*
X74100000Y-88300000D03*
X74100000Y-87500000D03*
%TD*%
%TO.C,D158*%
X90700000Y-80900000D03*
X90700000Y-81700000D03*
X89500000Y-81700000D03*
X89500000Y-80900000D03*
%TD*%
%TO.C,D256*%
X95100000Y-94100000D03*
X95100000Y-94900000D03*
X93900000Y-94900000D03*
X93900000Y-94100000D03*
%TD*%
%TO.C,D162*%
X64300000Y-83100000D03*
X64300000Y-83900000D03*
X63100000Y-83900000D03*
X63100000Y-83100000D03*
%TD*%
%TO.C,D208*%
X95100000Y-87500000D03*
X95100000Y-88300000D03*
X93900000Y-88300000D03*
X93900000Y-87500000D03*
%TD*%
%TO.C,D37*%
X70900000Y-65500000D03*
X70900000Y-66300000D03*
X69700000Y-66300000D03*
X69700000Y-65500000D03*
%TD*%
%TO.C,D143*%
X92900000Y-78700000D03*
X92900000Y-79500000D03*
X91700000Y-79500000D03*
X91700000Y-78700000D03*
%TD*%
%TO.C,D22*%
X73100000Y-63300000D03*
X73100000Y-64100000D03*
X71900000Y-64100000D03*
X71900000Y-63300000D03*
%TD*%
%TO.C,D215*%
X75300000Y-89700000D03*
X75300000Y-90500000D03*
X74100000Y-90500000D03*
X74100000Y-89700000D03*
%TD*%
%TO.C,D184*%
X77500000Y-85300000D03*
X77500000Y-86100000D03*
X76300000Y-86100000D03*
X76300000Y-85300000D03*
%TD*%
%TO.C,D135*%
X75300000Y-78700000D03*
X75300000Y-79500000D03*
X74100000Y-79500000D03*
X74100000Y-78700000D03*
%TD*%
%TO.C,D60*%
X86300000Y-67700000D03*
X86300000Y-68500000D03*
X85100000Y-68500000D03*
X85100000Y-67700000D03*
%TD*%
%TO.C,D50*%
X64300000Y-67700000D03*
X64300000Y-68500000D03*
X63100000Y-68500000D03*
X63100000Y-67700000D03*
%TD*%
%TO.C,D18*%
X64300000Y-63300000D03*
X64300000Y-64100000D03*
X63100000Y-64100000D03*
X63100000Y-63300000D03*
%TD*%
%TO.C,D139*%
X84100000Y-78700000D03*
X84100000Y-79500000D03*
X82900000Y-79500000D03*
X82900000Y-78700000D03*
%TD*%
%TO.C,D116*%
X68700000Y-76500000D03*
X68700000Y-77300000D03*
X67500000Y-77300000D03*
X67500000Y-76500000D03*
%TD*%
%TO.C,D169*%
X79700000Y-83100000D03*
X79700000Y-83900000D03*
X78500000Y-83900000D03*
X78500000Y-83100000D03*
%TD*%
%TO.C,D91*%
X84100000Y-72100000D03*
X84100000Y-72900000D03*
X82900000Y-72900000D03*
X82900000Y-72100000D03*
%TD*%
%TO.C,D7*%
X75300000Y-61100000D03*
X75300000Y-61900000D03*
X74100000Y-61900000D03*
X74100000Y-61100000D03*
%TD*%
%TO.C,D98*%
X64300000Y-74300000D03*
X64300000Y-75100000D03*
X63100000Y-75100000D03*
X63100000Y-74300000D03*
%TD*%
%TO.C,D214*%
X73100000Y-89700000D03*
X73100000Y-90500000D03*
X71900000Y-90500000D03*
X71900000Y-89700000D03*
%TD*%
%TO.C,D206*%
X90700000Y-87500000D03*
X90700000Y-88300000D03*
X89500000Y-88300000D03*
X89500000Y-87500000D03*
%TD*%
%TO.C,D38*%
X73100000Y-65500000D03*
X73100000Y-66300000D03*
X71900000Y-66300000D03*
X71900000Y-65500000D03*
%TD*%
%TO.C,D84*%
X68700000Y-72100000D03*
X68700000Y-72900000D03*
X67500000Y-72900000D03*
X67500000Y-72100000D03*
%TD*%
%TO.C,D230*%
X73100000Y-91900000D03*
X73100000Y-92700000D03*
X71900000Y-92700000D03*
X71900000Y-91900000D03*
%TD*%
%TO.C,D244*%
X68700000Y-94100000D03*
X68700000Y-94900000D03*
X67500000Y-94900000D03*
X67500000Y-94100000D03*
%TD*%
%TO.C,D188*%
X86300000Y-85300000D03*
X86300000Y-86100000D03*
X85100000Y-86100000D03*
X85100000Y-85300000D03*
%TD*%
%TO.C,D113*%
X62100000Y-76500000D03*
X62100000Y-77300000D03*
X60900000Y-77300000D03*
X60900000Y-76500000D03*
%TD*%
%TO.C,D101*%
X70900000Y-74300000D03*
X70900000Y-75100000D03*
X69700000Y-75100000D03*
X69700000Y-74300000D03*
%TD*%
%TO.C,D3*%
X66500000Y-61100000D03*
X66500000Y-61900000D03*
X65300000Y-61900000D03*
X65300000Y-61100000D03*
%TD*%
%TO.C,D41*%
X79700000Y-65500000D03*
X79700000Y-66300000D03*
X78500000Y-66300000D03*
X78500000Y-65500000D03*
%TD*%
%TO.C,D53*%
X70900000Y-67700000D03*
X70900000Y-68500000D03*
X69700000Y-68500000D03*
X69700000Y-67700000D03*
%TD*%
%TO.C,D207*%
X92900000Y-87500000D03*
X92900000Y-88300000D03*
X91700000Y-88300000D03*
X91700000Y-87500000D03*
%TD*%
%TO.C,D25*%
X79700000Y-63300000D03*
X79700000Y-64100000D03*
X78500000Y-64100000D03*
X78500000Y-63300000D03*
%TD*%
%TO.C,D172*%
X86300000Y-83100000D03*
X86300000Y-83900000D03*
X85100000Y-83900000D03*
X85100000Y-83100000D03*
%TD*%
%TO.C,D45*%
X88500000Y-65500000D03*
X88500000Y-66300000D03*
X87300000Y-66300000D03*
X87300000Y-65500000D03*
%TD*%
%TO.C,D224*%
X95100000Y-89700000D03*
X95100000Y-90500000D03*
X93900000Y-90500000D03*
X93900000Y-89700000D03*
%TD*%
%TO.C,D197*%
X70900000Y-87500000D03*
X70900000Y-88300000D03*
X69700000Y-88300000D03*
X69700000Y-87500000D03*
%TD*%
%TO.C,D10*%
X81900000Y-61100000D03*
X81900000Y-61900000D03*
X80700000Y-61900000D03*
X80700000Y-61100000D03*
%TD*%
%TO.C,D151*%
X75300000Y-80900000D03*
X75300000Y-81700000D03*
X74100000Y-81700000D03*
X74100000Y-80900000D03*
%TD*%
%TO.C,D144*%
X95100000Y-78700000D03*
X95100000Y-79500000D03*
X93900000Y-79500000D03*
X93900000Y-78700000D03*
%TD*%
%TO.C,D6*%
X73100000Y-61100000D03*
X73100000Y-61900000D03*
X71900000Y-61900000D03*
X71900000Y-61100000D03*
%TD*%
%TO.C,D242*%
X64300000Y-94100000D03*
X64300000Y-94900000D03*
X63100000Y-94900000D03*
X63100000Y-94100000D03*
%TD*%
%TO.C,D163*%
X66500000Y-83100000D03*
X66500000Y-83900000D03*
X65300000Y-83900000D03*
X65300000Y-83100000D03*
%TD*%
%TO.C,D68*%
X68700000Y-69900000D03*
X68700000Y-70700000D03*
X67500000Y-70700000D03*
X67500000Y-69900000D03*
%TD*%
%TO.C,D90*%
X81900000Y-72100000D03*
X81900000Y-72900000D03*
X80700000Y-72900000D03*
X80700000Y-72100000D03*
%TD*%
%TO.C,D109*%
X88500000Y-74300000D03*
X88500000Y-75100000D03*
X87300000Y-75100000D03*
X87300000Y-74300000D03*
%TD*%
%TO.C,D54*%
X73100000Y-67700000D03*
X73100000Y-68500000D03*
X71900000Y-68500000D03*
X71900000Y-67700000D03*
%TD*%
%TO.C,D49*%
X62100000Y-67700000D03*
X62100000Y-68500000D03*
X60900000Y-68500000D03*
X60900000Y-67700000D03*
%TD*%
%TO.C,D5*%
X70900000Y-61100000D03*
X70900000Y-61900000D03*
X69700000Y-61900000D03*
X69700000Y-61100000D03*
%TD*%
%TO.C,D145*%
X62100000Y-80900000D03*
X62100000Y-81700000D03*
X60900000Y-81700000D03*
X60900000Y-80900000D03*
%TD*%
%TO.C,D1*%
X62100000Y-61100000D03*
X62100000Y-61900000D03*
X60900000Y-61900000D03*
X60900000Y-61100000D03*
%TD*%
%TO.C,D74*%
X81900000Y-69900000D03*
X81900000Y-70700000D03*
X80700000Y-70700000D03*
X80700000Y-69900000D03*
%TD*%
%TO.C,D205*%
X88500000Y-87500000D03*
X88500000Y-88300000D03*
X87300000Y-88300000D03*
X87300000Y-87500000D03*
%TD*%
%TO.C,D148*%
X68700000Y-80900000D03*
X68700000Y-81700000D03*
X67500000Y-81700000D03*
X67500000Y-80900000D03*
%TD*%
%TO.C,D246*%
X73100000Y-94100000D03*
X73100000Y-94900000D03*
X71900000Y-94900000D03*
X71900000Y-94100000D03*
%TD*%
%TO.C,D82*%
X64300000Y-72100000D03*
X64300000Y-72900000D03*
X63100000Y-72900000D03*
X63100000Y-72100000D03*
%TD*%
%TO.C,D147*%
X66500000Y-80900000D03*
X66500000Y-81700000D03*
X65300000Y-81700000D03*
X65300000Y-80900000D03*
%TD*%
%TO.C,D102*%
X73100000Y-74300000D03*
X73100000Y-75100000D03*
X71900000Y-75100000D03*
X71900000Y-74300000D03*
%TD*%
%TO.C,D34*%
X64300000Y-65500000D03*
X64300000Y-66300000D03*
X63100000Y-66300000D03*
X63100000Y-65500000D03*
%TD*%
%TO.C,D80*%
X95100000Y-69900000D03*
X95100000Y-70700000D03*
X93900000Y-70700000D03*
X93900000Y-69900000D03*
%TD*%
%TO.C,D243*%
X66500000Y-94100000D03*
X66500000Y-94900000D03*
X65300000Y-94900000D03*
X65300000Y-94100000D03*
%TD*%
%TO.C,D185*%
X79700000Y-85300000D03*
X79700000Y-86100000D03*
X78500000Y-86100000D03*
X78500000Y-85300000D03*
%TD*%
%TO.C,D72*%
X77500000Y-69900000D03*
X77500000Y-70700000D03*
X76300000Y-70700000D03*
X76300000Y-69900000D03*
%TD*%
%TO.C,D142*%
X90700000Y-78700000D03*
X90700000Y-79500000D03*
X89500000Y-79500000D03*
X89500000Y-78700000D03*
%TD*%
%TO.C,D118*%
X73100000Y-76500000D03*
X73100000Y-77300000D03*
X71900000Y-77300000D03*
X71900000Y-76500000D03*
%TD*%
%TO.C,D161*%
X62100000Y-83100000D03*
X62100000Y-83900000D03*
X60900000Y-83900000D03*
X60900000Y-83100000D03*
%TD*%
%TO.C,D31*%
X92900000Y-63300000D03*
X92900000Y-64100000D03*
X91700000Y-64100000D03*
X91700000Y-63300000D03*
%TD*%
%TO.C,D240*%
X95100000Y-91900000D03*
X95100000Y-92700000D03*
X93900000Y-92700000D03*
X93900000Y-91900000D03*
%TD*%
%TO.C,D241*%
X62100000Y-94100000D03*
X62100000Y-94900000D03*
X60900000Y-94900000D03*
X60900000Y-94100000D03*
%TD*%
%TO.C,D122*%
X81900000Y-76500000D03*
X81900000Y-77300000D03*
X80700000Y-77300000D03*
X80700000Y-76500000D03*
%TD*%
%TO.C,D61*%
X88500000Y-67700000D03*
X88500000Y-68500000D03*
X87300000Y-68500000D03*
X87300000Y-67700000D03*
%TD*%
M02*
