%TF.GenerationSoftware,KiCad,Pcbnew,5.99.0-unknown-dd5676f4bc~131~ubuntu20.04.1*%
%TF.CreationDate,2021-08-08T04:37:49-07:00*%
%TF.ProjectId,panel,70616e65-6c2e-46b6-9963-61645f706362,rev?*%
%TF.SameCoordinates,Original*%
%TF.FileFunction,Paste,Bot*%
%TF.FilePolarity,Positive*%
%FSLAX46Y46*%
G04 Gerber Fmt 4.6, Leading zero omitted, Abs format (unit mm)*
G04 Created by KiCad (PCBNEW 5.99.0-unknown-dd5676f4bc~131~ubuntu20.04.1) date 2021-08-08 04:37:49*
%MOMM*%
%LPD*%
G01*
G04 APERTURE LIST*
G04 Aperture macros list*
%AMRoundRect*
0 Rectangle with rounded corners*
0 $1 Rounding radius*
0 $2 $3 $4 $5 $6 $7 $8 $9 X,Y pos of 4 corners*
0 Add a 4 corners polygon primitive as box body*
4,1,4,$2,$3,$4,$5,$6,$7,$8,$9,$2,$3,0*
0 Add four circle primitives for the rounded corners*
1,1,$1+$1,$2,$3*
1,1,$1+$1,$4,$5*
1,1,$1+$1,$6,$7*
1,1,$1+$1,$8,$9*
0 Add four rect primitives between the rounded corners*
20,1,$1+$1,$2,$3,$4,$5,0*
20,1,$1+$1,$4,$5,$6,$7,0*
20,1,$1+$1,$6,$7,$8,$9,0*
20,1,$1+$1,$8,$9,$2,$3,0*%
G04 Aperture macros list end*
%ADD10R,0.400000X1.200000*%
%ADD11RoundRect,0.050000X0.075000X-0.150000X0.075000X0.150000X-0.075000X0.150000X-0.075000X-0.150000X0*%
%ADD12RoundRect,0.050000X0.300000X-0.150000X0.300000X0.150000X-0.300000X0.150000X-0.300000X-0.150000X0*%
%ADD13RoundRect,0.140000X-0.170000X0.140000X-0.170000X-0.140000X0.170000X-0.140000X0.170000X0.140000X0*%
%ADD14RoundRect,0.135000X-0.185000X0.135000X-0.185000X-0.135000X0.185000X-0.135000X0.185000X0.135000X0*%
%ADD15RoundRect,0.135000X-0.135000X-0.185000X0.135000X-0.185000X0.135000X0.185000X-0.135000X0.185000X0*%
%ADD16R,0.300000X0.700000*%
%ADD17R,0.300000X1.000000*%
%ADD18RoundRect,0.100000X-0.100000X0.637500X-0.100000X-0.637500X0.100000X-0.637500X0.100000X0.637500X0*%
%ADD19R,0.200000X0.570000*%
%ADD20R,0.200000X0.520000*%
%ADD21RoundRect,0.140000X0.170000X-0.140000X0.170000X0.140000X-0.170000X0.140000X-0.170000X-0.140000X0*%
G04 APERTURE END LIST*
D10*
%TO.C,U1*%
X85007500Y-65800000D03*
X85642500Y-65800000D03*
X86277500Y-65800000D03*
X86912500Y-65800000D03*
X87547500Y-65800000D03*
X88182500Y-65800000D03*
X88817500Y-65800000D03*
X89452500Y-65800000D03*
X90087500Y-65800000D03*
X90722500Y-65800000D03*
X91357500Y-65800000D03*
X91992500Y-65800000D03*
X91992500Y-71000000D03*
X91357500Y-71000000D03*
X90722500Y-71000000D03*
X90087500Y-71000000D03*
X89452500Y-71000000D03*
X88817500Y-71000000D03*
X88182500Y-71000000D03*
X87547500Y-71000000D03*
X86912500Y-71000000D03*
X86277500Y-71000000D03*
X85642500Y-71000000D03*
X85007500Y-71000000D03*
%TD*%
D11*
%TO.C,Q14*%
X62525000Y-90450000D03*
X62075000Y-90450000D03*
D12*
X62300000Y-89750000D03*
%TD*%
D13*
%TO.C,C3*%
X63700000Y-72820000D03*
X63700000Y-73780000D03*
%TD*%
D11*
%TO.C,Q8*%
X62525000Y-77250000D03*
X62075000Y-77250000D03*
D12*
X62300000Y-76550000D03*
%TD*%
D14*
%TO.C,R3*%
X64800000Y-73940000D03*
X64800000Y-74960000D03*
%TD*%
D11*
%TO.C,Q2*%
X62525000Y-64050000D03*
X62075000Y-64050000D03*
D12*
X62300000Y-63350000D03*
%TD*%
D11*
%TO.C,Q15*%
X62525000Y-92650000D03*
X62075000Y-92650000D03*
D12*
X62300000Y-91950000D03*
%TD*%
D11*
%TO.C,Q11*%
X62525000Y-83850000D03*
X62075000Y-83850000D03*
D12*
X62300000Y-83150000D03*
%TD*%
D15*
%TO.C,R1*%
X85620000Y-72200000D03*
X86640000Y-72200000D03*
%TD*%
D13*
%TO.C,C2*%
X74400000Y-73620000D03*
X74400000Y-74580000D03*
%TD*%
D11*
%TO.C,Q1*%
X62525000Y-61850000D03*
X62075000Y-61850000D03*
D12*
X62300000Y-61150000D03*
%TD*%
D16*
%TO.C,J1*%
X78450000Y-88000000D03*
X78950000Y-88000000D03*
X79450000Y-88000000D03*
X79950000Y-88000000D03*
X80450000Y-88000000D03*
X80950000Y-88000000D03*
D17*
X77660000Y-85350000D03*
X81740000Y-85350000D03*
%TD*%
D11*
%TO.C,Q13*%
X62525000Y-88250000D03*
X62075000Y-88250000D03*
D12*
X62300000Y-87550000D03*
%TD*%
D10*
%TO.C,U3*%
X64007500Y-65800000D03*
X64642500Y-65800000D03*
X65277500Y-65800000D03*
X65912500Y-65800000D03*
X66547500Y-65800000D03*
X67182500Y-65800000D03*
X67817500Y-65800000D03*
X68452500Y-65800000D03*
X69087500Y-65800000D03*
X69722500Y-65800000D03*
X70357500Y-65800000D03*
X70992500Y-65800000D03*
X70992500Y-71000000D03*
X70357500Y-71000000D03*
X69722500Y-71000000D03*
X69087500Y-71000000D03*
X68452500Y-71000000D03*
X67817500Y-71000000D03*
X67182500Y-71000000D03*
X66547500Y-71000000D03*
X65912500Y-71000000D03*
X65277500Y-71000000D03*
X64642500Y-71000000D03*
X64007500Y-71000000D03*
%TD*%
D15*
%TO.C,R2*%
X75120000Y-72300000D03*
X76140000Y-72300000D03*
%TD*%
D18*
%TO.C,U4*%
X64925000Y-78907500D03*
X65575000Y-78907500D03*
X66225000Y-78907500D03*
X66875000Y-78907500D03*
X67525000Y-78907500D03*
X68175000Y-78907500D03*
X68825000Y-78907500D03*
X69475000Y-78907500D03*
X69475000Y-84632500D03*
X68825000Y-84632500D03*
X68175000Y-84632500D03*
X67525000Y-84632500D03*
X66875000Y-84632500D03*
X66225000Y-84632500D03*
X65575000Y-84632500D03*
X64925000Y-84632500D03*
%TD*%
D19*
%TO.C,U6*%
X78500000Y-90447500D03*
X78850000Y-90447500D03*
X79200000Y-90447500D03*
D20*
X79200000Y-91177500D03*
X78850000Y-91177500D03*
X78500000Y-91177500D03*
%TD*%
D11*
%TO.C,Q3*%
X62525000Y-66250000D03*
X62075000Y-66250000D03*
D12*
X62300000Y-65550000D03*
%TD*%
D11*
%TO.C,Q6*%
X62525000Y-72850000D03*
X62075000Y-72850000D03*
D12*
X62300000Y-72150000D03*
%TD*%
D11*
%TO.C,Q4*%
X62525000Y-68450000D03*
X62075000Y-68450000D03*
D12*
X62300000Y-67750000D03*
%TD*%
D11*
%TO.C,Q5*%
X62525000Y-70650000D03*
X62075000Y-70650000D03*
D12*
X62300000Y-69950000D03*
%TD*%
D10*
%TO.C,U2*%
X74507500Y-65800000D03*
X75142500Y-65800000D03*
X75777500Y-65800000D03*
X76412500Y-65800000D03*
X77047500Y-65800000D03*
X77682500Y-65800000D03*
X78317500Y-65800000D03*
X78952500Y-65800000D03*
X79587500Y-65800000D03*
X80222500Y-65800000D03*
X80857500Y-65800000D03*
X81492500Y-65800000D03*
X81492500Y-71000000D03*
X80857500Y-71000000D03*
X80222500Y-71000000D03*
X79587500Y-71000000D03*
X78952500Y-71000000D03*
X78317500Y-71000000D03*
X77682500Y-71000000D03*
X77047500Y-71000000D03*
X76412500Y-71000000D03*
X75777500Y-71000000D03*
X75142500Y-71000000D03*
X74507500Y-71000000D03*
%TD*%
D11*
%TO.C,Q12*%
X62525000Y-86050000D03*
X62075000Y-86050000D03*
D12*
X62300000Y-85350000D03*
%TD*%
D11*
%TO.C,Q10*%
X62525000Y-81650000D03*
X62075000Y-81650000D03*
D12*
X62300000Y-80950000D03*
%TD*%
D11*
%TO.C,Q16*%
X62525000Y-94850000D03*
X62075000Y-94850000D03*
D12*
X62300000Y-94150000D03*
%TD*%
D21*
%TO.C,C4*%
X70300000Y-83580000D03*
X70300000Y-82620000D03*
%TD*%
%TO.C,C5*%
X70300000Y-92380000D03*
X70300000Y-91420000D03*
%TD*%
D16*
%TO.C,J2*%
X87250000Y-88000000D03*
X87750000Y-88000000D03*
X88250000Y-88000000D03*
X88750000Y-88000000D03*
X89250000Y-88000000D03*
X89750000Y-88000000D03*
D17*
X90540000Y-85350000D03*
X86460000Y-85350000D03*
%TD*%
D19*
%TO.C,U7*%
X80200000Y-90447500D03*
X80550000Y-90447500D03*
X80900000Y-90447500D03*
D20*
X80900000Y-91177500D03*
X80550000Y-91177500D03*
X80200000Y-91177500D03*
%TD*%
D13*
%TO.C,C1*%
X84700000Y-74020000D03*
X84700000Y-74980000D03*
%TD*%
D11*
%TO.C,Q9*%
X62525000Y-79450000D03*
X62075000Y-79450000D03*
D12*
X62300000Y-78750000D03*
%TD*%
D11*
%TO.C,Q7*%
X62525000Y-75050000D03*
X62075000Y-75050000D03*
D12*
X62300000Y-74350000D03*
%TD*%
D18*
%TO.C,U5*%
X64925000Y-87707500D03*
X65575000Y-87707500D03*
X66225000Y-87707500D03*
X66875000Y-87707500D03*
X67525000Y-87707500D03*
X68175000Y-87707500D03*
X68825000Y-87707500D03*
X69475000Y-87707500D03*
X69475000Y-93432500D03*
X68825000Y-93432500D03*
X68175000Y-93432500D03*
X67525000Y-93432500D03*
X66875000Y-93432500D03*
X66225000Y-93432500D03*
X65575000Y-93432500D03*
X64925000Y-93432500D03*
%TD*%
M02*
