%TF.GenerationSoftware,KiCad,Pcbnew,5.99.0-unknown-dd5676f4bc~131~ubuntu20.04.1*%
%TF.CreationDate,2021-11-28T03:13:37-08:00*%
%TF.ProjectId,breakout,62726561-6b6f-4757-942e-6b696361645f,rev?*%
%TF.SameCoordinates,Original*%
%TF.FileFunction,Legend,Top*%
%TF.FilePolarity,Positive*%
%FSLAX46Y46*%
G04 Gerber Fmt 4.6, Leading zero omitted, Abs format (unit mm)*
G04 Created by KiCad (PCBNEW 5.99.0-unknown-dd5676f4bc~131~ubuntu20.04.1) date 2021-11-28 03:13:37*
%MOMM*%
%LPD*%
G01*
G04 APERTURE LIST*
G04 Aperture macros list*
%AMRoundRect*
0 Rectangle with rounded corners*
0 $1 Rounding radius*
0 $2 $3 $4 $5 $6 $7 $8 $9 X,Y pos of 4 corners*
0 Add a 4 corners polygon primitive as box body*
4,1,4,$2,$3,$4,$5,$6,$7,$8,$9,$2,$3,0*
0 Add four circle primitives for the rounded corners*
1,1,$1+$1,$2,$3*
1,1,$1+$1,$4,$5*
1,1,$1+$1,$6,$7*
1,1,$1+$1,$8,$9*
0 Add four rect primitives between the rounded corners*
20,1,$1+$1,$2,$3,$4,$5,0*
20,1,$1+$1,$4,$5,$6,$7,0*
20,1,$1+$1,$6,$7,$8,$9,0*
20,1,$1+$1,$8,$9,$2,$3,0*%
G04 Aperture macros list end*
%ADD10C,0.250000*%
%ADD11R,0.700000X0.300000*%
%ADD12R,1.000000X0.300000*%
%ADD13C,4.400000*%
%ADD14RoundRect,0.425000X-0.425000X-0.425000X0.425000X-0.425000X0.425000X0.425000X-0.425000X0.425000X0*%
G04 APERTURE END LIST*
D10*
X123075595Y-90602380D02*
X123408928Y-91602380D01*
X123742261Y-90602380D01*
X124647023Y-91507142D02*
X124599404Y-91554761D01*
X124456547Y-91602380D01*
X124361309Y-91602380D01*
X124218452Y-91554761D01*
X124123214Y-91459523D01*
X124075595Y-91364285D01*
X124027976Y-91173809D01*
X124027976Y-91030952D01*
X124075595Y-90840476D01*
X124123214Y-90745238D01*
X124218452Y-90650000D01*
X124361309Y-90602380D01*
X124456547Y-90602380D01*
X124599404Y-90650000D01*
X124647023Y-90697619D01*
X125647023Y-91507142D02*
X125599404Y-91554761D01*
X125456547Y-91602380D01*
X125361309Y-91602380D01*
X125218452Y-91554761D01*
X125123214Y-91459523D01*
X125075595Y-91364285D01*
X125027976Y-91173809D01*
X125027976Y-91030952D01*
X125075595Y-90840476D01*
X125123214Y-90745238D01*
X125218452Y-90650000D01*
X125361309Y-90602380D01*
X125456547Y-90602380D01*
X125599404Y-90650000D01*
X125647023Y-90697619D01*
X122075595Y-99222380D02*
X121599404Y-99222380D01*
X121599404Y-98222380D01*
X122361309Y-98936666D02*
X122837500Y-98936666D01*
X122266071Y-99222380D02*
X122599404Y-98222380D01*
X122932738Y-99222380D01*
X123123214Y-98222380D02*
X123694642Y-98222380D01*
X123408928Y-99222380D02*
X123408928Y-98222380D01*
X124599404Y-99127142D02*
X124551785Y-99174761D01*
X124408928Y-99222380D01*
X124313690Y-99222380D01*
X124170833Y-99174761D01*
X124075595Y-99079523D01*
X124027976Y-98984285D01*
X123980357Y-98793809D01*
X123980357Y-98650952D01*
X124027976Y-98460476D01*
X124075595Y-98365238D01*
X124170833Y-98270000D01*
X124313690Y-98222380D01*
X124408928Y-98222380D01*
X124551785Y-98270000D01*
X124599404Y-98317619D01*
X125027976Y-99222380D02*
X125027976Y-98222380D01*
X125027976Y-98698571D02*
X125599404Y-98698571D01*
X125599404Y-99222380D02*
X125599404Y-98222380D01*
X123551785Y-103350000D02*
X123456547Y-103302380D01*
X123313690Y-103302380D01*
X123170833Y-103350000D01*
X123075595Y-103445238D01*
X123027976Y-103540476D01*
X122980357Y-103730952D01*
X122980357Y-103873809D01*
X123027976Y-104064285D01*
X123075595Y-104159523D01*
X123170833Y-104254761D01*
X123313690Y-104302380D01*
X123408928Y-104302380D01*
X123551785Y-104254761D01*
X123599404Y-104207142D01*
X123599404Y-103873809D01*
X123408928Y-103873809D01*
X124027976Y-104302380D02*
X124027976Y-103302380D01*
X124599404Y-104302380D01*
X124599404Y-103302380D01*
X125075595Y-104302380D02*
X125075595Y-103302380D01*
X125313690Y-103302380D01*
X125456547Y-103350000D01*
X125551785Y-103445238D01*
X125599404Y-103540476D01*
X125647023Y-103730952D01*
X125647023Y-103873809D01*
X125599404Y-104064285D01*
X125551785Y-104159523D01*
X125456547Y-104254761D01*
X125313690Y-104302380D01*
X125075595Y-104302380D01*
X123837500Y-94047142D02*
X123789880Y-94094761D01*
X123647023Y-94142380D01*
X123551785Y-94142380D01*
X123408928Y-94094761D01*
X123313690Y-93999523D01*
X123266071Y-93904285D01*
X123218452Y-93713809D01*
X123218452Y-93570952D01*
X123266071Y-93380476D01*
X123313690Y-93285238D01*
X123408928Y-93190000D01*
X123551785Y-93142380D01*
X123647023Y-93142380D01*
X123789880Y-93190000D01*
X123837500Y-93237619D01*
X124742261Y-94142380D02*
X124266071Y-94142380D01*
X124266071Y-93142380D01*
X125075595Y-94142380D02*
X125075595Y-93142380D01*
X125647023Y-94142380D02*
X125218452Y-93570952D01*
X125647023Y-93142380D02*
X125075595Y-93713809D01*
X123456547Y-96682380D02*
X123456547Y-95682380D01*
X123694642Y-95682380D01*
X123837500Y-95730000D01*
X123932738Y-95825238D01*
X123980357Y-95920476D01*
X124027976Y-96110952D01*
X124027976Y-96253809D01*
X123980357Y-96444285D01*
X123932738Y-96539523D01*
X123837500Y-96634761D01*
X123694642Y-96682380D01*
X123456547Y-96682380D01*
X124408928Y-96396666D02*
X124885119Y-96396666D01*
X124313690Y-96682380D02*
X124647023Y-95682380D01*
X124980357Y-96682380D01*
X125170833Y-95682380D02*
X125742261Y-95682380D01*
X125456547Y-96682380D02*
X125456547Y-95682380D01*
X121694642Y-101238571D02*
X121837500Y-101286190D01*
X121885119Y-101333809D01*
X121932738Y-101429047D01*
X121932738Y-101571904D01*
X121885119Y-101667142D01*
X121837500Y-101714761D01*
X121742261Y-101762380D01*
X121361309Y-101762380D01*
X121361309Y-100762380D01*
X121694642Y-100762380D01*
X121789880Y-100810000D01*
X121837500Y-100857619D01*
X121885119Y-100952857D01*
X121885119Y-101048095D01*
X121837500Y-101143333D01*
X121789880Y-101190952D01*
X121694642Y-101238571D01*
X121361309Y-101238571D01*
X122837500Y-101762380D02*
X122361309Y-101762380D01*
X122361309Y-100762380D01*
X123123214Y-101476666D02*
X123599404Y-101476666D01*
X123027976Y-101762380D02*
X123361309Y-100762380D01*
X123694642Y-101762380D01*
X124027976Y-101762380D02*
X124027976Y-100762380D01*
X124599404Y-101762380D01*
X124599404Y-100762380D01*
X125075595Y-101762380D02*
X125075595Y-100762380D01*
X125647023Y-101762380D02*
X125218452Y-101190952D01*
X125647023Y-100762380D02*
X125075595Y-101333809D01*
%LPC*%
D11*
%TO.C,J2*%
X118400000Y-96250000D03*
X118400000Y-96750000D03*
X118400000Y-97250000D03*
X118400000Y-97750000D03*
X118400000Y-98250000D03*
X118400000Y-98750000D03*
D12*
X115750000Y-99540000D03*
X115750000Y-95460000D03*
%TD*%
D13*
%TO.C,REF\u002A\u002A*%
X117000000Y-103000000D03*
%TD*%
D14*
%TO.C,J1*%
X128000000Y-91150000D03*
X128000000Y-93690000D03*
X128000000Y-96230000D03*
X128000000Y-98770000D03*
X128000000Y-101310000D03*
X128000000Y-103850000D03*
%TD*%
D13*
%TO.C,REF\u002A\u002A*%
X117000000Y-92000000D03*
%TD*%
M02*
