%TF.GenerationSoftware,KiCad,Pcbnew,5.99.0-unknown-dd5676f4bc~131~ubuntu20.04.1*%
%TF.CreationDate,2021-11-28T03:13:37-08:00*%
%TF.ProjectId,breakout,62726561-6b6f-4757-942e-6b696361645f,rev?*%
%TF.SameCoordinates,Original*%
%TF.FileFunction,Copper,L2,Bot*%
%TF.FilePolarity,Positive*%
%FSLAX46Y46*%
G04 Gerber Fmt 4.6, Leading zero omitted, Abs format (unit mm)*
G04 Created by KiCad (PCBNEW 5.99.0-unknown-dd5676f4bc~131~ubuntu20.04.1) date 2021-11-28 03:13:37*
%MOMM*%
%LPD*%
G01*
G04 APERTURE LIST*
G04 Aperture macros list*
%AMRoundRect*
0 Rectangle with rounded corners*
0 $1 Rounding radius*
0 $2 $3 $4 $5 $6 $7 $8 $9 X,Y pos of 4 corners*
0 Add a 4 corners polygon primitive as box body*
4,1,4,$2,$3,$4,$5,$6,$7,$8,$9,$2,$3,0*
0 Add four circle primitives for the rounded corners*
1,1,$1+$1,$2,$3*
1,1,$1+$1,$4,$5*
1,1,$1+$1,$6,$7*
1,1,$1+$1,$8,$9*
0 Add four rect primitives between the rounded corners*
20,1,$1+$1,$2,$3,$4,$5,0*
20,1,$1+$1,$4,$5,$6,$7,0*
20,1,$1+$1,$6,$7,$8,$9,0*
20,1,$1+$1,$8,$9,$2,$3,0*%
G04 Aperture macros list end*
%TA.AperFunction,ComponentPad*%
%ADD10C,4.400000*%
%TD*%
%TA.AperFunction,ComponentPad*%
%ADD11RoundRect,0.425000X-0.425000X-0.425000X0.425000X-0.425000X0.425000X0.425000X-0.425000X0.425000X0*%
%TD*%
G04 APERTURE END LIST*
D10*
%TO.P,REF\u002A\u002A,1*%
%TO.N,N/C*%
X117000000Y-103000000D03*
%TD*%
D11*
%TO.P,J1,1,Pin_1*%
%TO.N,Net-(J1-Pad1)*%
X128000000Y-91150000D03*
%TO.P,J1,2,Pin_2*%
%TO.N,Net-(J1-Pad2)*%
X128000000Y-93690000D03*
%TO.P,J1,3,Pin_3*%
%TO.N,Net-(J1-Pad3)*%
X128000000Y-96230000D03*
%TO.P,J1,4,Pin_4*%
%TO.N,Net-(J1-Pad4)*%
X128000000Y-98770000D03*
%TO.P,J1,5,Pin_5*%
%TO.N,Net-(J1-Pad5)*%
X128000000Y-101310000D03*
%TO.P,J1,6,Pin_6*%
%TO.N,Net-(J1-Pad6)*%
X128000000Y-103850000D03*
%TD*%
D10*
%TO.P,REF\u002A\u002A,1*%
%TO.N,N/C*%
X117000000Y-92000000D03*
%TD*%
%TA.AperFunction,Conductor*%
%TO.N,Net-(J1-Pad6)*%
G36*
X129759191Y-89218907D02*
G01*
X129795155Y-89268407D01*
X129800000Y-89299000D01*
X129800000Y-105701000D01*
X129781093Y-105759191D01*
X129731593Y-105795155D01*
X129701000Y-105800000D01*
X114299000Y-105800000D01*
X114240809Y-105781093D01*
X114204845Y-105731593D01*
X114200000Y-105701000D01*
X114200000Y-103000000D01*
X114594754Y-103000000D01*
X114613720Y-103301457D01*
X114670319Y-103598160D01*
X114671275Y-103601102D01*
X114671277Y-103601110D01*
X114749063Y-103840509D01*
X114763659Y-103885430D01*
X114892267Y-104158736D01*
X115054115Y-104413768D01*
X115246651Y-104646504D01*
X115466838Y-104853274D01*
X115711205Y-105030816D01*
X115713932Y-105032315D01*
X115973174Y-105174836D01*
X115973180Y-105174839D01*
X115975896Y-105176332D01*
X115978784Y-105177475D01*
X115978783Y-105177475D01*
X116253848Y-105286381D01*
X116253851Y-105286382D01*
X116256738Y-105287525D01*
X116259741Y-105288296D01*
X116259747Y-105288298D01*
X116546295Y-105361870D01*
X116549302Y-105362642D01*
X116552383Y-105363031D01*
X116552387Y-105363032D01*
X116651903Y-105375604D01*
X116848973Y-105400500D01*
X117151027Y-105400500D01*
X117348097Y-105375604D01*
X117447613Y-105363032D01*
X117447617Y-105363031D01*
X117450698Y-105362642D01*
X117453705Y-105361870D01*
X117740253Y-105288298D01*
X117740259Y-105288296D01*
X117743262Y-105287525D01*
X117746149Y-105286382D01*
X117746152Y-105286381D01*
X118021217Y-105177475D01*
X118021216Y-105177475D01*
X118024104Y-105176332D01*
X118026820Y-105174839D01*
X118026826Y-105174836D01*
X118286068Y-105032315D01*
X118288795Y-105030816D01*
X118533162Y-104853274D01*
X118753349Y-104646504D01*
X118945885Y-104413768D01*
X119107733Y-104158736D01*
X119236341Y-103885430D01*
X119250937Y-103840509D01*
X119328723Y-103601110D01*
X119328725Y-103601102D01*
X119329681Y-103598160D01*
X119386280Y-103301457D01*
X119405246Y-103000000D01*
X119386280Y-102698543D01*
X119329681Y-102401840D01*
X119328725Y-102398898D01*
X119328723Y-102398890D01*
X119237303Y-102117531D01*
X119236341Y-102114570D01*
X119107733Y-101841264D01*
X118945885Y-101586232D01*
X118753349Y-101353496D01*
X118533162Y-101146726D01*
X118288795Y-100969184D01*
X118208014Y-100924774D01*
X118026826Y-100825164D01*
X118026820Y-100825161D01*
X118024104Y-100823668D01*
X118019479Y-100821837D01*
X126949500Y-100821837D01*
X126949501Y-101798162D01*
X126952291Y-101833627D01*
X126996382Y-101985390D01*
X127076830Y-102121420D01*
X127188580Y-102233170D01*
X127324610Y-102313618D01*
X127330591Y-102315356D01*
X127330592Y-102315356D01*
X127471515Y-102356298D01*
X127471518Y-102356299D01*
X127476373Y-102357709D01*
X127481413Y-102358106D01*
X127481415Y-102358106D01*
X127496891Y-102359324D01*
X127511837Y-102360500D01*
X127999874Y-102360500D01*
X128488162Y-102360499D01*
X128490106Y-102360346D01*
X128490108Y-102360346D01*
X128518586Y-102358106D01*
X128518590Y-102358105D01*
X128523627Y-102357709D01*
X128675390Y-102313618D01*
X128811420Y-102233170D01*
X128923170Y-102121420D01*
X129003618Y-101985390D01*
X129005356Y-101979408D01*
X129046298Y-101838485D01*
X129046299Y-101838482D01*
X129047709Y-101833627D01*
X129050500Y-101798163D01*
X129050499Y-100821838D01*
X129047709Y-100786373D01*
X129003618Y-100634610D01*
X128923170Y-100498580D01*
X128811420Y-100386830D01*
X128675390Y-100306382D01*
X128669408Y-100304644D01*
X128528485Y-100263702D01*
X128528482Y-100263701D01*
X128523627Y-100262291D01*
X128518587Y-100261894D01*
X128518585Y-100261894D01*
X128503109Y-100260676D01*
X128488163Y-100259500D01*
X128000126Y-100259500D01*
X127511838Y-100259501D01*
X127509894Y-100259654D01*
X127509892Y-100259654D01*
X127481414Y-100261894D01*
X127481410Y-100261895D01*
X127476373Y-100262291D01*
X127324610Y-100306382D01*
X127188580Y-100386830D01*
X127076830Y-100498580D01*
X126996382Y-100634610D01*
X126952291Y-100786373D01*
X126949500Y-100821837D01*
X118019479Y-100821837D01*
X117942640Y-100791414D01*
X117746152Y-100713619D01*
X117746149Y-100713618D01*
X117743262Y-100712475D01*
X117740259Y-100711704D01*
X117740253Y-100711702D01*
X117453705Y-100638130D01*
X117453704Y-100638130D01*
X117450698Y-100637358D01*
X117447617Y-100636969D01*
X117447613Y-100636968D01*
X117348097Y-100624396D01*
X117151027Y-100599500D01*
X116848973Y-100599500D01*
X116651903Y-100624396D01*
X116552387Y-100636968D01*
X116552383Y-100636969D01*
X116549302Y-100637358D01*
X116546296Y-100638130D01*
X116546295Y-100638130D01*
X116259747Y-100711702D01*
X116259741Y-100711704D01*
X116256738Y-100712475D01*
X116253851Y-100713618D01*
X116253848Y-100713619D01*
X116057360Y-100791414D01*
X115975896Y-100823668D01*
X115973180Y-100825161D01*
X115973174Y-100825164D01*
X115791986Y-100924774D01*
X115711205Y-100969184D01*
X115466838Y-101146726D01*
X115246651Y-101353496D01*
X115054115Y-101586232D01*
X114892267Y-101841264D01*
X114763659Y-102114570D01*
X114762697Y-102117531D01*
X114671277Y-102398890D01*
X114671275Y-102398898D01*
X114670319Y-102401840D01*
X114613720Y-102698543D01*
X114594754Y-103000000D01*
X114200000Y-103000000D01*
X114200000Y-98281837D01*
X126949500Y-98281837D01*
X126949501Y-99258162D01*
X126952291Y-99293627D01*
X126996382Y-99445390D01*
X127076830Y-99581420D01*
X127188580Y-99693170D01*
X127324610Y-99773618D01*
X127330591Y-99775356D01*
X127330592Y-99775356D01*
X127471515Y-99816298D01*
X127471518Y-99816299D01*
X127476373Y-99817709D01*
X127481413Y-99818106D01*
X127481415Y-99818106D01*
X127496891Y-99819324D01*
X127511837Y-99820500D01*
X127999874Y-99820500D01*
X128488162Y-99820499D01*
X128490106Y-99820346D01*
X128490108Y-99820346D01*
X128518586Y-99818106D01*
X128518590Y-99818105D01*
X128523627Y-99817709D01*
X128675390Y-99773618D01*
X128811420Y-99693170D01*
X128923170Y-99581420D01*
X129003618Y-99445390D01*
X129047709Y-99293627D01*
X129050500Y-99258163D01*
X129050499Y-98281838D01*
X129047709Y-98246373D01*
X129003618Y-98094610D01*
X128923170Y-97958580D01*
X128811420Y-97846830D01*
X128675390Y-97766382D01*
X128669408Y-97764644D01*
X128528485Y-97723702D01*
X128528482Y-97723701D01*
X128523627Y-97722291D01*
X128518587Y-97721894D01*
X128518585Y-97721894D01*
X128503109Y-97720676D01*
X128488163Y-97719500D01*
X128000126Y-97719500D01*
X127511838Y-97719501D01*
X127509894Y-97719654D01*
X127509892Y-97719654D01*
X127481414Y-97721894D01*
X127481410Y-97721895D01*
X127476373Y-97722291D01*
X127324610Y-97766382D01*
X127188580Y-97846830D01*
X127076830Y-97958580D01*
X126996382Y-98094610D01*
X126952291Y-98246373D01*
X126949500Y-98281837D01*
X114200000Y-98281837D01*
X114200000Y-95741837D01*
X126949500Y-95741837D01*
X126949501Y-96718162D01*
X126952291Y-96753627D01*
X126996382Y-96905390D01*
X127076830Y-97041420D01*
X127188580Y-97153170D01*
X127324610Y-97233618D01*
X127330591Y-97235356D01*
X127330592Y-97235356D01*
X127471515Y-97276298D01*
X127471518Y-97276299D01*
X127476373Y-97277709D01*
X127481413Y-97278106D01*
X127481415Y-97278106D01*
X127496891Y-97279324D01*
X127511837Y-97280500D01*
X127999874Y-97280500D01*
X128488162Y-97280499D01*
X128490106Y-97280346D01*
X128490108Y-97280346D01*
X128518586Y-97278106D01*
X128518590Y-97278105D01*
X128523627Y-97277709D01*
X128675390Y-97233618D01*
X128811420Y-97153170D01*
X128923170Y-97041420D01*
X129003618Y-96905390D01*
X129047709Y-96753627D01*
X129050500Y-96718163D01*
X129050499Y-95741838D01*
X129047709Y-95706373D01*
X129003618Y-95554610D01*
X128923170Y-95418580D01*
X128811420Y-95306830D01*
X128675390Y-95226382D01*
X128669408Y-95224644D01*
X128528485Y-95183702D01*
X128528482Y-95183701D01*
X128523627Y-95182291D01*
X128518587Y-95181894D01*
X128518585Y-95181894D01*
X128503109Y-95180676D01*
X128488163Y-95179500D01*
X128000126Y-95179500D01*
X127511838Y-95179501D01*
X127509894Y-95179654D01*
X127509892Y-95179654D01*
X127481414Y-95181894D01*
X127481410Y-95181895D01*
X127476373Y-95182291D01*
X127324610Y-95226382D01*
X127188580Y-95306830D01*
X127076830Y-95418580D01*
X126996382Y-95554610D01*
X126952291Y-95706373D01*
X126949500Y-95741837D01*
X114200000Y-95741837D01*
X114200000Y-92000000D01*
X114594754Y-92000000D01*
X114594949Y-92003099D01*
X114607359Y-92200347D01*
X114613720Y-92301457D01*
X114670319Y-92598160D01*
X114671275Y-92601102D01*
X114671277Y-92601110D01*
X114724092Y-92763657D01*
X114763659Y-92885430D01*
X114892267Y-93158736D01*
X115054115Y-93413768D01*
X115246651Y-93646504D01*
X115466838Y-93853274D01*
X115711205Y-94030816D01*
X115713932Y-94032315D01*
X115973174Y-94174836D01*
X115973180Y-94174839D01*
X115975896Y-94176332D01*
X115978784Y-94177475D01*
X115978783Y-94177475D01*
X116253848Y-94286381D01*
X116253851Y-94286382D01*
X116256738Y-94287525D01*
X116259741Y-94288296D01*
X116259747Y-94288298D01*
X116536706Y-94359408D01*
X116549302Y-94362642D01*
X116552383Y-94363031D01*
X116552387Y-94363032D01*
X116651903Y-94375604D01*
X116848973Y-94400500D01*
X117151027Y-94400500D01*
X117348097Y-94375604D01*
X117447613Y-94363032D01*
X117447617Y-94363031D01*
X117450698Y-94362642D01*
X117463294Y-94359408D01*
X117740253Y-94288298D01*
X117740259Y-94288296D01*
X117743262Y-94287525D01*
X117746149Y-94286382D01*
X117746152Y-94286381D01*
X118021217Y-94177475D01*
X118021216Y-94177475D01*
X118024104Y-94176332D01*
X118026820Y-94174839D01*
X118026826Y-94174836D01*
X118286068Y-94032315D01*
X118288795Y-94030816D01*
X118533162Y-93853274D01*
X118753349Y-93646504D01*
X118945885Y-93413768D01*
X119080380Y-93201837D01*
X126949500Y-93201837D01*
X126949501Y-94178162D01*
X126952291Y-94213627D01*
X126996382Y-94365390D01*
X127076830Y-94501420D01*
X127188580Y-94613170D01*
X127324610Y-94693618D01*
X127330591Y-94695356D01*
X127330592Y-94695356D01*
X127471515Y-94736298D01*
X127471518Y-94736299D01*
X127476373Y-94737709D01*
X127481413Y-94738106D01*
X127481415Y-94738106D01*
X127496891Y-94739324D01*
X127511837Y-94740500D01*
X127999874Y-94740500D01*
X128488162Y-94740499D01*
X128490106Y-94740346D01*
X128490108Y-94740346D01*
X128518586Y-94738106D01*
X128518590Y-94738105D01*
X128523627Y-94737709D01*
X128675390Y-94693618D01*
X128811420Y-94613170D01*
X128923170Y-94501420D01*
X129003618Y-94365390D01*
X129047709Y-94213627D01*
X129050500Y-94178163D01*
X129050499Y-93201838D01*
X129047709Y-93166373D01*
X129003618Y-93014610D01*
X128923170Y-92878580D01*
X128811420Y-92766830D01*
X128675390Y-92686382D01*
X128669408Y-92684644D01*
X128528485Y-92643702D01*
X128528482Y-92643701D01*
X128523627Y-92642291D01*
X128518587Y-92641894D01*
X128518585Y-92641894D01*
X128503109Y-92640676D01*
X128488163Y-92639500D01*
X128000126Y-92639500D01*
X127511838Y-92639501D01*
X127509894Y-92639654D01*
X127509892Y-92639654D01*
X127481414Y-92641894D01*
X127481410Y-92641895D01*
X127476373Y-92642291D01*
X127324610Y-92686382D01*
X127188580Y-92766830D01*
X127076830Y-92878580D01*
X126996382Y-93014610D01*
X126994644Y-93020591D01*
X126994644Y-93020592D01*
X126953746Y-93161366D01*
X126952291Y-93166373D01*
X126949500Y-93201837D01*
X119080380Y-93201837D01*
X119107733Y-93158736D01*
X119236341Y-92885430D01*
X119275908Y-92763657D01*
X119328723Y-92601110D01*
X119328725Y-92601102D01*
X119329681Y-92598160D01*
X119386280Y-92301457D01*
X119392642Y-92200347D01*
X119405051Y-92003099D01*
X119405246Y-92000000D01*
X119386280Y-91698543D01*
X119329681Y-91401840D01*
X119328725Y-91398898D01*
X119328723Y-91398890D01*
X119237303Y-91117531D01*
X119236341Y-91114570D01*
X119107733Y-90841264D01*
X118993865Y-90661837D01*
X126949500Y-90661837D01*
X126949501Y-91638162D01*
X126952291Y-91673627D01*
X126996382Y-91825390D01*
X127076830Y-91961420D01*
X127188580Y-92073170D01*
X127324610Y-92153618D01*
X127330591Y-92155356D01*
X127330592Y-92155356D01*
X127471515Y-92196298D01*
X127471518Y-92196299D01*
X127476373Y-92197709D01*
X127481413Y-92198106D01*
X127481415Y-92198106D01*
X127496891Y-92199324D01*
X127511837Y-92200500D01*
X127999874Y-92200500D01*
X128488162Y-92200499D01*
X128490106Y-92200346D01*
X128490108Y-92200346D01*
X128518586Y-92198106D01*
X128518590Y-92198105D01*
X128523627Y-92197709D01*
X128675390Y-92153618D01*
X128811420Y-92073170D01*
X128923170Y-91961420D01*
X129003618Y-91825390D01*
X129039567Y-91701652D01*
X129046298Y-91678485D01*
X129046299Y-91678482D01*
X129047709Y-91673627D01*
X129050500Y-91638163D01*
X129050499Y-90661838D01*
X129047709Y-90626373D01*
X129003618Y-90474610D01*
X128923170Y-90338580D01*
X128811420Y-90226830D01*
X128675390Y-90146382D01*
X128669408Y-90144644D01*
X128528485Y-90103702D01*
X128528482Y-90103701D01*
X128523627Y-90102291D01*
X128518587Y-90101894D01*
X128518585Y-90101894D01*
X128503109Y-90100676D01*
X128488163Y-90099500D01*
X128000126Y-90099500D01*
X127511838Y-90099501D01*
X127509894Y-90099654D01*
X127509892Y-90099654D01*
X127481414Y-90101894D01*
X127481410Y-90101895D01*
X127476373Y-90102291D01*
X127324610Y-90146382D01*
X127188580Y-90226830D01*
X127076830Y-90338580D01*
X126996382Y-90474610D01*
X126952291Y-90626373D01*
X126949500Y-90661837D01*
X118993865Y-90661837D01*
X118945885Y-90586232D01*
X118753349Y-90353496D01*
X118533162Y-90146726D01*
X118530297Y-90144644D01*
X118468161Y-90099500D01*
X118288795Y-89969184D01*
X118208014Y-89924774D01*
X118026826Y-89825164D01*
X118026820Y-89825161D01*
X118024104Y-89823668D01*
X117978735Y-89805705D01*
X117746152Y-89713619D01*
X117746149Y-89713618D01*
X117743262Y-89712475D01*
X117740259Y-89711704D01*
X117740253Y-89711702D01*
X117453705Y-89638130D01*
X117453704Y-89638130D01*
X117450698Y-89637358D01*
X117447617Y-89636969D01*
X117447613Y-89636968D01*
X117348097Y-89624396D01*
X117151027Y-89599500D01*
X116848973Y-89599500D01*
X116651903Y-89624396D01*
X116552387Y-89636968D01*
X116552383Y-89636969D01*
X116549302Y-89637358D01*
X116546296Y-89638130D01*
X116546295Y-89638130D01*
X116259747Y-89711702D01*
X116259741Y-89711704D01*
X116256738Y-89712475D01*
X116253851Y-89713618D01*
X116253848Y-89713619D01*
X116021265Y-89805705D01*
X115975896Y-89823668D01*
X115973180Y-89825161D01*
X115973174Y-89825164D01*
X115791986Y-89924774D01*
X115711205Y-89969184D01*
X115531839Y-90099500D01*
X115469704Y-90144644D01*
X115466838Y-90146726D01*
X115246651Y-90353496D01*
X115054115Y-90586232D01*
X114892267Y-90841264D01*
X114763659Y-91114570D01*
X114762697Y-91117531D01*
X114671277Y-91398890D01*
X114671275Y-91398898D01*
X114670319Y-91401840D01*
X114613720Y-91698543D01*
X114594754Y-92000000D01*
X114200000Y-92000000D01*
X114200000Y-89299000D01*
X114218907Y-89240809D01*
X114268407Y-89204845D01*
X114299000Y-89200000D01*
X129701000Y-89200000D01*
X129759191Y-89218907D01*
G37*
%TD.AperFunction*%
%TD*%
M02*
