%TF.GenerationSoftware,KiCad,Pcbnew,5.99.0-unknown-dd5676f4bc~131~ubuntu20.04.1*%
%TF.CreationDate,2021-11-28T03:13:37-08:00*%
%TF.ProjectId,breakout,62726561-6b6f-4757-942e-6b696361645f,rev?*%
%TF.SameCoordinates,Original*%
%TF.FileFunction,Legend,Bot*%
%TF.FilePolarity,Positive*%
%FSLAX46Y46*%
G04 Gerber Fmt 4.6, Leading zero omitted, Abs format (unit mm)*
G04 Created by KiCad (PCBNEW 5.99.0-unknown-dd5676f4bc~131~ubuntu20.04.1) date 2021-11-28 03:13:37*
%MOMM*%
%LPD*%
G01*
G04 APERTURE LIST*
G04 Aperture macros list*
%AMRoundRect*
0 Rectangle with rounded corners*
0 $1 Rounding radius*
0 $2 $3 $4 $5 $6 $7 $8 $9 X,Y pos of 4 corners*
0 Add a 4 corners polygon primitive as box body*
4,1,4,$2,$3,$4,$5,$6,$7,$8,$9,$2,$3,0*
0 Add four circle primitives for the rounded corners*
1,1,$1+$1,$2,$3*
1,1,$1+$1,$4,$5*
1,1,$1+$1,$6,$7*
1,1,$1+$1,$8,$9*
0 Add four rect primitives between the rounded corners*
20,1,$1+$1,$2,$3,$4,$5,0*
20,1,$1+$1,$4,$5,$6,$7,0*
20,1,$1+$1,$6,$7,$8,$9,0*
20,1,$1+$1,$8,$9,$2,$3,0*%
G04 Aperture macros list end*
%ADD10C,0.500000*%
%ADD11C,4.400000*%
%ADD12RoundRect,0.425000X-0.425000X-0.425000X0.425000X-0.425000X0.425000X0.425000X-0.425000X0.425000X0*%
G04 APERTURE END LIST*
D10*
X121095238Y-103500000D02*
X121095238Y-104452380D01*
X123095238Y-104452380D01*
X122142857Y-102833333D02*
X122142857Y-102166666D01*
X121095238Y-101880952D02*
X121095238Y-102833333D01*
X123095238Y-102833333D01*
X123095238Y-101880952D01*
X121095238Y-101023809D02*
X123095238Y-101023809D01*
X123095238Y-100547619D01*
X123000000Y-100261904D01*
X122809523Y-100071428D01*
X122619047Y-99976190D01*
X122238095Y-99880952D01*
X121952380Y-99880952D01*
X121571428Y-99976190D01*
X121380952Y-100071428D01*
X121190476Y-100261904D01*
X121095238Y-100547619D01*
X121095238Y-101023809D01*
X121285714Y-96357142D02*
X121190476Y-96452380D01*
X121095238Y-96738095D01*
X121095238Y-96928571D01*
X121190476Y-97214285D01*
X121380952Y-97404761D01*
X121571428Y-97500000D01*
X121952380Y-97595238D01*
X122238095Y-97595238D01*
X122619047Y-97500000D01*
X122809523Y-97404761D01*
X123000000Y-97214285D01*
X123095238Y-96928571D01*
X123095238Y-96738095D01*
X123000000Y-96452380D01*
X122904761Y-96357142D01*
X123095238Y-95500000D02*
X121476190Y-95500000D01*
X121285714Y-95404761D01*
X121190476Y-95309523D01*
X121095238Y-95119047D01*
X121095238Y-94738095D01*
X121190476Y-94547619D01*
X121285714Y-94452380D01*
X121476190Y-94357142D01*
X123095238Y-94357142D01*
X122142857Y-92738095D02*
X122047619Y-92452380D01*
X121952380Y-92357142D01*
X121761904Y-92261904D01*
X121476190Y-92261904D01*
X121285714Y-92357142D01*
X121190476Y-92452380D01*
X121095238Y-92642857D01*
X121095238Y-93404761D01*
X123095238Y-93404761D01*
X123095238Y-92738095D01*
X123000000Y-92547619D01*
X122904761Y-92452380D01*
X122714285Y-92357142D01*
X122523809Y-92357142D01*
X122333333Y-92452380D01*
X122238095Y-92547619D01*
X122142857Y-92738095D01*
X122142857Y-93404761D01*
X122142857Y-91404761D02*
X122142857Y-90738095D01*
X121095238Y-90452380D02*
X121095238Y-91404761D01*
X123095238Y-91404761D01*
X123095238Y-90452380D01*
%LPC*%
D11*
%TO.C,REF\u002A\u002A*%
X117000000Y-103000000D03*
%TD*%
D12*
%TO.C,J1*%
X128000000Y-91150000D03*
X128000000Y-93690000D03*
X128000000Y-96230000D03*
X128000000Y-98770000D03*
X128000000Y-101310000D03*
X128000000Y-103850000D03*
%TD*%
D11*
%TO.C,REF\u002A\u002A*%
X117000000Y-92000000D03*
%TD*%
M02*
